<svg width="1008" height="924" viewBox="0 0 1008 924" fill="none" xmlns="http://www.w3.org/2000/svg">
    <path fill-rule="evenodd" clip-rule="evenodd"
        d="M475.109 138.973C483.864 123.169 493.672 105.462 507.219 95.4841C514.025 111.744 523.187 127.232 532.293 142.626C536.957 150.512 541.607 158.373 545.919 166.3C552.639 178.658 559.468 190.972 566.454 203.184C567.077 204.271 567.7 205.395 568.332 206.536C571.569 212.372 575.054 218.657 579.992 222.899C588.565 230.264 602.986 233.902 614.437 236.791C615.616 237.088 616.763 237.377 617.869 237.662C621.854 238.688 625.818 239.787 629.782 240.886C633.673 241.964 637.564 243.043 641.473 244.052C641.654 244.098 641.839 244.147 642.029 244.197C645.075 245 649.256 246.101 650.854 242.526C652.509 238.822 650.62 233.688 649.097 229.553C648.733 228.563 648.39 227.631 648.121 226.789C647.245 224.044 646.384 221.296 645.523 218.549C642.51 208.929 639.499 199.319 635.852 189.906C615.413 137.136 587.045 87.2577 550.61 43.8474C540.925 32.3088 531.033 20.6625 520.475 9.91613C520.004 9.43593 519.521 8.93067 519.027 8.41297C515.397 4.60918 511.127 0.134498 505.744 0.00333928C498.728 -0.16992 491.748 6.43354 486.115 11.7625C484.697 13.104 483.365 14.3647 482.139 15.4162C462.663 32.117 446.741 52.2774 432.259 73.3541C387.395 138.655 356.099 216.457 343.037 294.654C342.788 296.143 342.537 297.634 342.287 299.127C338.616 321 334.875 343.293 334.611 365.471C334.308 390.93 336.113 415.679 340.629 440.713C340.809 441.713 340.992 442.864 341.191 444.116C342.421 451.859 344.266 463.47 349.977 467.226C356.148 471.287 368.827 467.143 378.045 464.131C380.631 463.285 382.945 462.529 384.766 462.068C386.651 461.591 388.787 461.185 391.017 460.762C396.989 459.629 403.631 458.368 407.903 455.26C413.919 450.881 411.56 437.798 410.005 429.17C409.682 427.376 409.393 425.775 409.222 424.484C405.403 395.765 406.392 366.239 408.503 337.439C413.316 271.782 435.623 206.63 468.844 150.072C470.896 146.579 472.971 142.833 475.109 138.973ZM767.232 501.201C784.193 527.675 814.558 551.387 842.12 566.116C847.917 555.255 845.267 539.506 843.227 527.758C838.134 498.431 829.725 469.327 817.491 442.188C766.001 327.973 655.865 245.921 529.349 237.248C527.751 237.138 526.148 237.025 524.543 236.913C507.539 235.717 490.203 234.498 473.287 236.7C462.84 238.062 452.996 240.577 445.836 249.056C440.26 255.66 437.772 265.682 436.12 274C434.339 282.955 433.436 292.903 433.455 302.031C433.456 302.459 433.445 302.926 433.434 303.417C433.361 306.454 433.266 310.448 435.817 312.186C439.431 314.646 447.912 312.641 454.632 311.053C457.35 310.41 459.781 309.836 461.484 309.653C482.537 307.391 505.245 306.168 526.399 308.183C597.727 314.976 662.792 345.109 710.394 399.403C725.442 416.569 737.245 436.293 746.88 456.941C749.269 462.061 751.384 467.289 753.495 472.51C757.476 482.353 761.448 492.172 767.232 501.201ZM320.637 317.074C321.655 309.634 323.76 294.247 312.453 296.792C305.663 298.321 298.472 304.136 292.487 308.976C291.222 309.999 290.012 310.978 288.87 311.864C269.83 326.64 252.52 344.056 237.115 362.52C167.997 445.359 145.721 557.822 169.384 662.013C177.371 697.185 192.707 730.278 211.58 760.861C212.453 762.276 213.365 763.801 214.316 765.394C220.242 775.31 227.722 787.827 237.239 792.644C247.376 797.776 260.964 793.964 271.166 791.019C281.038 788.171 290.976 784.938 300.665 781.509L300.672 781.507C304.962 779.989 310.162 778.15 307.98 772.598C305.253 765.661 299.278 759.066 293.579 752.774C290.601 749.487 287.699 746.283 285.373 743.157C272.158 725.389 260.525 706.096 252.004 685.618C221.125 611.419 222.735 528.637 259.743 456.941C266.221 444.393 274.839 433.224 283.438 422.079C292.657 410.131 301.854 398.211 308.368 384.65C316.114 368.524 317.369 352.927 318.684 336.589C319.166 330.6 319.656 324.511 320.477 318.26C320.525 317.893 320.58 317.497 320.637 317.074ZM621.121 354.443C615.536 352.035 608.201 348.872 603.585 350.404C598.749 352.009 599.495 362.487 599.96 369.024C600.071 370.579 600.165 371.911 600.165 372.847C600.165 393.371 598.254 413.302 596.309 433.585C596.082 435.955 595.854 438.331 595.629 440.713C591.068 488.936 572.732 537.937 551.113 580.87C544.258 594.486 536.57 607.879 528.328 620.704C527.371 622.193 526.188 623.795 524.951 625.471C521.61 629.996 517.874 635.057 517.116 639.883C516.378 644.582 520.086 648.326 523.271 651.543C523.8 652.077 524.315 652.597 524.792 653.104C533.142 661.967 541.394 670.949 549.632 679.917L550.572 680.94C550.929 681.329 551.307 681.756 551.703 682.204C554.643 685.531 558.623 690.035 563.17 688.937C567.65 687.855 571.242 682.373 574.068 678.059C574.73 677.048 575.35 676.102 575.93 675.291C586.098 661.062 595.149 646.239 603.742 631.031C640.312 566.308 666.528 489.057 669.447 414.157C670.604 384.47 651.498 365.831 625.246 356.148C624.066 355.713 622.66 355.106 621.121 354.443ZM533.566 468.283C511.842 466.763 488.863 465.156 467.385 467.691C416.743 473.666 369.374 482.413 321.327 500.197C319.48 500.88 317.609 501.566 315.721 502.259C298.62 508.531 280.117 515.316 265.27 525.342C248.52 536.653 249.379 556.705 250.179 575.346C250.346 579.247 250.511 583.086 250.511 586.771C250.511 587.596 250.429 588.805 250.332 590.242C249.867 597.113 249.05 609.185 255.155 609.295C261.836 609.415 270.638 603.646 277.826 598.934C280.267 597.335 282.521 595.857 284.444 594.773C303.462 584.052 323.214 574.741 343.457 566.572C381.769 551.111 423.186 541.041 464.435 538.216C472.307 537.677 480.967 538.114 489.856 538.563C509.898 539.575 531.102 540.646 547.053 530.716C560.54 522.321 563.517 507.615 566.413 493.312C566.678 492.002 566.942 490.696 567.214 489.399C567.424 488.398 567.774 487.227 568.15 485.968C569.596 481.134 571.432 474.995 567.217 472.164C562.575 469.045 553.398 468.951 546.037 468.876C543.655 468.852 541.463 468.829 539.677 468.707C537.653 468.569 535.615 468.426 533.566 468.283ZM737.8 854.126C730.555 860.435 722.609 867.352 719.668 875.937C729.997 881.352 742.654 883.508 754.408 885.509C756.129 885.802 757.83 886.092 759.502 886.388C775.775 889.271 792.015 890.905 808.267 892.54C818.56 893.576 828.857 894.612 839.17 895.966C850.754 897.486 862.415 896.602 873.996 895.723C876.16 895.559 878.322 895.395 880.479 895.247C909.841 893.238 938.768 890.689 967.524 883.694C976.906 881.412 986.327 878.977 995.555 876.14C995.959 876.016 996.376 875.893 996.801 875.768C1000.5 874.677 1004.83 873.397 1006.47 869.699C1008.95 864.088 1006.42 855.91 1004.4 849.357C1003.91 847.775 1003.46 846.288 1003.1 844.955C997.158 822.448 988.995 799.814 979.532 778.565C937.842 684.953 870.497 607.997 786.058 550.513C761.418 533.74 733.219 518.665 704.914 509.103C703.536 508.638 701.788 507.924 699.822 507.122C692.249 504.03 681.448 499.622 676.16 502.998C671.053 506.261 668.711 517.428 666.906 526.029C666.276 529.034 665.711 531.726 665.117 533.659C664.59 535.373 663.859 537.339 663.077 539.443C660.568 546.192 657.533 554.355 659.021 560.134C660.656 566.488 672.178 570.879 680.662 574.113C683.25 575.099 685.554 575.977 687.21 576.771C715.001 590.095 741.776 605.033 766.878 623.004C820.172 661.153 864.81 712.124 896.029 769.713C905.045 786.341 914.239 803.396 920.313 821.349C911.065 823.551 901.118 823.274 891.403 823.002C888.218 822.913 885.057 822.825 881.955 822.825H815.564C812.868 822.825 810.146 822.769 807.413 822.713C795.183 822.464 782.72 822.21 771.304 826.903C762.398 830.564 755.289 837.539 748.402 844.296C746.687 845.979 744.986 847.648 743.274 849.249C741.568 850.846 739.708 852.465 737.8 854.126ZM638.117 796.288C645.268 792.598 652.654 788.787 656.228 781.515C653.654 779.779 651.081 778.045 648.508 776.312C612.525 752.071 576.832 728.026 544.103 699.317C515.487 674.216 491.179 643.757 472.835 610.376C471.271 607.53 469.729 604.479 468.146 601.347C459.992 585.216 450.761 566.952 431.977 563.651C419.801 561.51 408.79 565.1 397.586 568.753C395.292 569.5 392.99 570.251 390.668 570.955C390.193 571.099 389.706 571.242 389.212 571.387C383.524 573.05 376.946 574.973 378.902 582.352C379.795 585.725 381.536 588.96 383.251 592.146C384.144 593.806 385.03 595.452 385.786 597.098C392.274 611.226 399.408 624.894 407.118 638.408C441.08 697.935 487.888 749.518 542.627 790.555C544.805 792.187 547.091 793.994 549.47 795.874C561.72 805.556 576.423 817.177 591.313 816.842C603.489 816.568 615.649 809.306 626.461 802.849C628.57 801.59 630.627 800.361 632.623 799.221C634.39 798.212 636.245 797.254 638.117 796.288ZM145.472 630.492C144.496 625.988 142.868 618.466 138.173 619.112C133.884 619.703 129.973 624.325 126.988 627.853C126.473 628.462 125.985 629.038 125.528 629.556C123.253 632.13 120.951 634.694 118.645 637.261C111.816 644.864 104.959 652.498 98.7283 660.538C63.7953 705.615 36.2596 753.397 15.6536 806.596C10.2318 820.593 5.76148 834.902 1.80611 849.381C-0.1974 856.718 -1.60488 864.776 3.61781 871.195C8.15276 876.771 15.9618 878.616 22.8 880.231C23.4722 880.389 24.1351 880.546 24.7845 880.704C40.4451 884.509 56.1708 887.652 71.9952 890.69C147.149 905.114 229.397 896.411 302.148 874.159C351.909 858.938 399.425 836.05 442.305 806.633C444.07 805.421 445.847 804.212 447.629 802.999C458.454 795.631 469.452 788.146 479.122 779.392C481.852 776.92 485.274 773.788 484.83 769.711C484.414 765.902 481.122 762.684 478.269 759.895C477.566 759.208 476.89 758.547 476.29 757.91C472.605 753.997 468.966 750.035 465.327 746.073C462.621 743.127 459.916 740.181 457.191 737.255C456.278 736.276 455.346 735.134 454.375 733.945C450.742 729.494 446.563 724.377 440.829 724.601C433.765 724.878 425.499 730.924 418.451 736.08C415.872 737.967 413.457 739.734 411.322 741.056C391.847 753.117 371.338 763.593 350.834 773.773C304.809 796.623 253.959 813.461 203.3 821.96C171.039 827.372 137.746 829.119 105.928 820.25C105.412 820.106 104.781 819.946 104.07 819.766C98.7587 818.421 88.9822 815.944 89.2242 810.537C89.3435 807.863 91.2792 805.026 92.9402 802.591C93.3946 801.925 93.8285 801.289 94.199 800.695L107.976 778.565C117.024 763.872 125.972 749.102 134.845 734.305L135.441 733.31C145.527 716.5 154.608 701.363 154.614 681.192C154.62 665.41 150.679 650.487 146.679 635.333C146.43 634.392 146.181 633.45 145.933 632.506C145.791 631.965 145.641 631.274 145.472 630.492ZM780.07 655.077C777.836 653.311 774.773 650.891 771.715 651.512C767.785 652.308 765.786 658.919 764.393 663.525C764.051 664.656 763.746 665.666 763.457 666.439C758.172 680.607 751.567 694.494 744.288 707.749C720.997 750.158 686.763 786.539 645.901 812.419C603.414 839.328 550.301 855.021 499.843 853.785C487.31 853.478 473.84 852.122 461.484 849.949C458.497 849.424 455.501 848.804 452.495 848.182C442.798 846.177 433.002 844.151 423.125 845.211C409.293 846.696 395.21 853.912 382.433 860.459C380.218 861.594 378.043 862.708 375.914 863.77C373.774 864.837 371.341 865.871 368.818 866.943C362.484 869.634 355.583 872.567 351.331 876.877C345.587 882.701 353.447 888.496 358.212 891.475C370.825 899.36 386.097 904.431 400.191 909.111L400.995 909.378C453.442 926.796 513.854 927.981 567.708 916.494C656.265 897.605 738.087 848.193 789.383 772.663C800.146 756.817 809.403 738.95 816.132 721.027C818.887 713.691 821.836 703.653 818.896 695.946C816.186 688.848 809.187 682.558 802.961 676.963C801.132 675.319 799.37 673.736 797.803 672.209C795.945 670.399 794.123 668.517 792.297 666.63C788.408 662.613 784.497 658.572 780.156 655.145L780.07 655.077Z"
        fill="white" />
</svg>