<svg width="375" height="339" viewBox="0 0 375 339" fill="none" xmlns="http://www.w3.org/2000/svg">
<path d="M201.269 285.808C202.745 285.808 204.035 285.97 205.139 286.294C206.243 286.618 207.131 286.96 207.803 287.32C208.475 287.68 208.883 287.92 209.027 288.04L206.435 292.378C206.243 292.234 205.913 292.024 205.445 291.748C204.989 291.472 204.443 291.226 203.807 291.01C203.183 290.794 202.529 290.686 201.845 290.686C200.921 290.686 200.171 290.854 199.595 291.19C199.031 291.514 198.749 292 198.749 292.648C198.749 293.092 198.899 293.494 199.199 293.854C199.511 294.202 199.979 294.538 200.603 294.862C201.239 295.174 202.043 295.516 203.015 295.888C203.903 296.212 204.737 296.596 205.517 297.04C206.297 297.484 206.981 298.012 207.569 298.624C208.169 299.224 208.643 299.92 208.991 300.712C209.339 301.504 209.513 302.404 209.513 303.412C209.513 304.612 209.267 305.656 208.775 306.544C208.283 307.42 207.611 308.146 206.759 308.722C205.919 309.298 204.959 309.724 203.879 310C202.811 310.288 201.701 310.432 200.549 310.432C198.917 310.432 197.453 310.246 196.157 309.874C194.873 309.502 193.835 309.1 193.043 308.668C192.251 308.236 191.777 307.948 191.621 307.804L194.303 303.286C194.447 303.394 194.723 303.568 195.131 303.808C195.551 304.048 196.061 304.3 196.661 304.564C197.261 304.816 197.897 305.032 198.569 305.212C199.253 305.392 199.925 305.482 200.585 305.482C201.689 305.482 202.517 305.272 203.069 304.852C203.621 304.42 203.897 303.856 203.897 303.16C203.897 302.644 203.723 302.182 203.375 301.774C203.027 301.366 202.505 300.982 201.809 300.622C201.113 300.25 200.243 299.86 199.199 299.452C198.155 299.032 197.177 298.522 196.265 297.922C195.365 297.322 194.633 296.572 194.069 295.672C193.505 294.772 193.223 293.656 193.223 292.324C193.223 290.992 193.595 289.84 194.339 288.868C195.095 287.884 196.085 287.128 197.309 286.6C198.545 286.072 199.865 285.808 201.269 285.808ZM225.338 305.104C226.442 305.104 227.444 304.942 228.344 304.618C229.256 304.294 229.934 303.976 230.378 303.664L232.682 308.236C232.118 308.716 231.152 309.202 229.784 309.694C228.428 310.186 226.814 310.432 224.942 310.432C223.19 310.432 221.546 310.126 220.01 309.514C218.474 308.902 217.118 308.044 215.942 306.94C214.778 305.824 213.86 304.522 213.188 303.034C212.528 301.534 212.198 299.908 212.198 298.156C212.198 296.404 212.528 294.778 213.188 293.278C213.848 291.766 214.76 290.452 215.924 289.336C217.1 288.22 218.456 287.356 219.992 286.744C221.54 286.12 223.19 285.808 224.942 285.808C226.814 285.808 228.428 286.054 229.784 286.546C231.152 287.038 232.118 287.524 232.682 288.004L230.378 292.576C229.934 292.252 229.256 291.934 228.344 291.622C227.444 291.298 226.442 291.136 225.338 291.136C224.114 291.136 223.046 291.328 222.134 291.712C221.222 292.084 220.46 292.6 219.848 293.26C219.236 293.92 218.78 294.664 218.48 295.492C218.18 296.32 218.03 297.19 218.03 298.102C218.03 299.026 218.18 299.908 218.48 300.748C218.78 301.576 219.236 302.32 219.848 302.98C220.46 303.64 221.222 304.162 222.134 304.546C223.046 304.918 224.114 305.104 225.338 305.104ZM236.157 286.24H241.539V310H236.157V286.24ZM245.697 286.24H260.871V290.956H251.061V295.798H260.781V300.37H251.061V305.284H260.871V310H245.697V286.24ZM269.914 291.172L270.31 291.244V310H264.928V286.24H272.272L281.902 304.96L281.506 305.032V286.24H286.888V310H279.508L269.914 291.172ZM303.525 305.104C304.629 305.104 305.631 304.942 306.531 304.618C307.443 304.294 308.121 303.976 308.565 303.664L310.869 308.236C310.305 308.716 309.339 309.202 307.971 309.694C306.615 310.186 305.001 310.432 303.129 310.432C301.377 310.432 299.733 310.126 298.197 309.514C296.661 308.902 295.305 308.044 294.129 306.94C292.965 305.824 292.047 304.522 291.375 303.034C290.715 301.534 290.385 299.908 290.385 298.156C290.385 296.404 290.715 294.778 291.375 293.278C292.035 291.766 292.947 290.452 294.111 289.336C295.287 288.22 296.643 287.356 298.179 286.744C299.727 286.12 301.377 285.808 303.129 285.808C305.001 285.808 306.615 286.054 307.971 286.546C309.339 287.038 310.305 287.524 310.869 288.004L308.565 292.576C308.121 292.252 307.443 291.934 306.531 291.622C305.631 291.298 304.629 291.136 303.525 291.136C302.301 291.136 301.233 291.328 300.321 291.712C299.409 292.084 298.647 292.6 298.035 293.26C297.423 293.92 296.967 294.664 296.667 295.492C296.367 296.32 296.217 297.19 296.217 298.102C296.217 299.026 296.367 299.908 296.667 300.748C296.967 301.576 297.423 302.32 298.035 302.98C298.647 303.64 299.409 304.162 300.321 304.546C301.233 304.918 302.301 305.104 303.525 305.104ZM314.146 286.24H329.32V290.956H319.51V295.798H329.23V300.37H319.51V305.284H329.32V310H314.146V286.24Z" fill="white"/>
<path d="M362.5 170L159 193M159 193L13.5 326M159 193L70.5 15" stroke="white" stroke-width="5"/>
<circle cx="13.5" cy="325.5" r="10.5" fill="white" stroke="black" stroke-width="6"/>
<circle cx="70.5" cy="13.5" r="10.5" fill="white" stroke="black" stroke-width="6"/>
<circle cx="361.5" cy="168.5" r="10.5" fill="white" stroke="black" stroke-width="6"/>
<circle cx="159.5" cy="191.5" r="10.5" fill="white" stroke="black" stroke-width="6"/>
</svg>
