<svg width="2192" height="1233" viewBox="0 0 2192 1233" fill="none" xmlns="http://www.w3.org/2000/svg">
<rect width="2192" height="1233" fill="#32174D"/>
<g id="techsprint">
<path d="M1726 701L1849.82 821.631M1849.82 821.631L2004 895.128L1753.96 987L1849.82 821.631Z" stroke="white" stroke-width="5"/>
<circle cx="1725.5" cy="699.5" r="10.5" fill="white" stroke="#32174D" stroke-width="6"/>
<circle cx="1755.5" cy="986.5" r="10.5" fill="white" stroke="#32174D" stroke-width="6"/>
<circle cx="2003.5" cy="894.5" r="10.5" fill="white" stroke="#32174D" stroke-width="6"/>
<circle cx="1850.5" cy="821.5" r="10.5" fill="white" stroke="#32174D" stroke-width="6"/>
<path d="M1876.31 746.956H1870.64V742.24H1887.34V746.956H1881.69V766H1876.31V746.956ZM1890.23 742.24H1905.4V746.956H1895.59V751.798H1905.31V756.37H1895.59V761.284H1905.4V766H1890.23V742.24ZM1922.04 761.104C1923.15 761.104 1924.15 760.942 1925.05 760.618C1925.96 760.294 1926.64 759.976 1927.08 759.664L1929.39 764.236C1928.82 764.716 1927.86 765.202 1926.49 765.694C1925.13 766.186 1923.52 766.432 1921.65 766.432C1919.89 766.432 1918.25 766.126 1916.71 765.514C1915.18 764.902 1913.82 764.044 1912.65 762.94C1911.48 761.824 1910.56 760.522 1909.89 759.034C1909.23 757.534 1908.9 755.908 1908.9 754.156C1908.9 752.404 1909.23 750.778 1909.89 749.278C1910.55 747.766 1911.46 746.452 1912.63 745.336C1913.8 744.22 1915.16 743.356 1916.7 742.744C1918.24 742.12 1919.89 741.808 1921.65 741.808C1923.52 741.808 1925.13 742.054 1926.49 742.546C1927.86 743.038 1928.82 743.524 1929.39 744.004L1927.08 748.576C1926.64 748.252 1925.96 747.934 1925.05 747.622C1924.15 747.298 1923.15 747.136 1922.04 747.136C1920.82 747.136 1919.75 747.328 1918.84 747.712C1917.93 748.084 1917.16 748.6 1916.55 749.26C1915.94 749.92 1915.48 750.664 1915.18 751.492C1914.88 752.32 1914.73 753.19 1914.73 754.102C1914.73 755.026 1914.88 755.908 1915.18 756.748C1915.48 757.576 1915.94 758.32 1916.55 758.98C1917.16 759.64 1917.93 760.162 1918.84 760.546C1919.75 760.918 1920.82 761.104 1922.04 761.104ZM1946.24 756.442H1938.03V766H1932.66V742.24H1938.03V751.744H1946.24V742.24H1951.58V766H1946.24V756.442ZM1964.31 741.808C1965.79 741.808 1967.08 741.97 1968.18 742.294C1969.29 742.618 1970.18 742.96 1970.85 743.32C1971.52 743.68 1971.93 743.92 1972.07 744.04L1969.48 748.378C1969.29 748.234 1968.96 748.024 1968.49 747.748C1968.03 747.472 1967.49 747.226 1966.85 747.01C1966.23 746.794 1965.57 746.686 1964.89 746.686C1963.97 746.686 1963.22 746.854 1962.64 747.19C1962.08 747.514 1961.79 748 1961.79 748.648C1961.79 749.092 1961.94 749.494 1962.24 749.854C1962.56 750.202 1963.02 750.538 1963.65 750.862C1964.28 751.174 1965.09 751.516 1966.06 751.888C1966.95 752.212 1967.78 752.596 1968.56 753.04C1969.34 753.484 1970.03 754.012 1970.61 754.624C1971.21 755.224 1971.69 755.92 1972.04 756.712C1972.38 757.504 1972.56 758.404 1972.56 759.412C1972.56 760.612 1972.31 761.656 1971.82 762.544C1971.33 763.42 1970.66 764.146 1969.8 764.722C1968.96 765.298 1968 765.724 1966.92 766C1965.86 766.288 1964.75 766.432 1963.59 766.432C1961.96 766.432 1960.5 766.246 1959.2 765.874C1957.92 765.502 1956.88 765.1 1956.09 764.668C1955.3 764.236 1954.82 763.948 1954.67 763.804L1957.35 759.286C1957.49 759.394 1957.77 759.568 1958.18 759.808C1958.6 760.048 1959.11 760.3 1959.71 760.564C1960.31 760.816 1960.94 761.032 1961.61 761.212C1962.3 761.392 1962.97 761.482 1963.63 761.482C1964.73 761.482 1965.56 761.272 1966.11 760.852C1966.67 760.42 1966.94 759.856 1966.94 759.16C1966.94 758.644 1966.77 758.182 1966.42 757.774C1966.07 757.366 1965.55 756.982 1964.85 756.622C1964.16 756.25 1963.29 755.86 1962.24 755.452C1961.2 755.032 1960.22 754.522 1959.31 753.922C1958.41 753.322 1957.68 752.572 1957.11 751.672C1956.55 750.772 1956.27 749.656 1956.27 748.324C1956.27 746.992 1956.64 745.84 1957.38 744.868C1958.14 743.884 1959.13 743.128 1960.35 742.6C1961.59 742.072 1962.91 741.808 1964.31 741.808ZM1975.84 742.24H1984.48C1986 742.24 1987.37 742.51 1988.6 743.05C1989.82 743.578 1990.79 744.388 1991.51 745.48C1992.25 746.56 1992.61 747.916 1992.61 749.548C1992.61 751.168 1992.25 752.548 1991.51 753.688C1990.79 754.816 1989.82 755.68 1988.6 756.28C1987.37 756.868 1986 757.162 1984.48 757.162H1981.22V766H1975.84V742.24ZM1981.22 752.914H1982.98C1983.71 752.914 1984.37 752.806 1984.94 752.59C1985.53 752.374 1986 752.032 1986.35 751.564C1986.7 751.084 1986.87 750.454 1986.87 749.674C1986.87 748.882 1986.7 748.258 1986.35 747.802C1986 747.334 1985.53 746.998 1984.94 746.794C1984.37 746.59 1983.71 746.488 1982.98 746.488H1981.22V752.914ZM1995.59 742.24H2005.28C2006.66 742.24 2007.89 742.528 2008.97 743.104C2010.05 743.68 2010.9 744.514 2011.52 745.606C2012.16 746.686 2012.48 747.976 2012.48 749.476C2012.48 750.976 2012.21 752.206 2011.67 753.166C2011.14 754.114 2010.5 754.828 2009.76 755.308C2009.01 755.776 2008.32 756.058 2007.69 756.154L2013.47 766H2007.42L2002.27 756.568H2000.97V766H1995.59V742.24ZM2000.97 752.842H2003.35C2004.31 752.842 2005.15 752.608 2005.87 752.14C2006.59 751.672 2006.95 750.844 2006.95 749.656C2006.95 748.468 2006.6 747.646 2005.89 747.19C2005.18 746.722 2004.35 746.488 2003.39 746.488H2000.97V752.842ZM2017.2 742.24H2022.58V766H2017.2V742.24ZM2031.73 747.172L2032.12 747.244V766H2026.74V742.24H2034.09L2043.72 760.96L2043.32 761.032V742.24H2048.7V766H2041.32L2031.73 747.172ZM2057.19 746.956H2051.52V742.24H2068.22V746.956H2062.57V766H2057.19V746.956Z" fill="white"/>
</g>
<g id="sports">
<path d="M1643.5 135.5L1624.5 306L1736 365L1852 157" stroke="white" stroke-width="5"/>
<circle cx="1643.5" cy="137.5" r="10.5" fill="white" stroke="#32174D" stroke-width="6"/>
<circle cx="1851.5" cy="157.5" r="10.5" fill="white" stroke="#32174D" stroke-width="6"/>
<circle cx="1623.5" cy="305.5" r="10.5" fill="white" stroke="#32174D" stroke-width="6"/>
<circle cx="1735.5" cy="363.5" r="10.5" fill="white" stroke="#32174D" stroke-width="6"/>
<path d="M1841.26 331.808C1842.73 331.808 1844.02 331.97 1845.13 332.294C1846.23 332.618 1847.12 332.96 1847.79 333.32C1848.46 333.68 1848.87 333.92 1849.02 334.04L1846.42 338.378C1846.23 338.234 1845.9 338.024 1845.43 337.748C1844.98 337.472 1844.43 337.226 1843.8 337.01C1843.17 336.794 1842.52 336.686 1841.83 336.686C1840.91 336.686 1840.16 336.854 1839.58 337.19C1839.02 337.514 1838.74 338 1838.74 338.648C1838.74 339.092 1838.89 339.494 1839.19 339.854C1839.5 340.202 1839.97 340.538 1840.59 340.862C1841.23 341.174 1842.03 341.516 1843 341.888C1843.89 342.212 1844.73 342.596 1845.51 343.04C1846.29 343.484 1846.97 344.012 1847.56 344.624C1848.16 345.224 1848.63 345.92 1848.98 346.712C1849.33 347.504 1849.5 348.404 1849.5 349.412C1849.5 350.612 1849.26 351.656 1848.76 352.544C1848.27 353.42 1847.6 354.146 1846.75 354.722C1845.91 355.298 1844.95 355.724 1843.87 356C1842.8 356.288 1841.69 356.432 1840.54 356.432C1838.91 356.432 1837.44 356.246 1836.15 355.874C1834.86 355.502 1833.82 355.1 1833.03 354.668C1832.24 354.236 1831.77 353.948 1831.61 353.804L1834.29 349.286C1834.44 349.394 1834.71 349.568 1835.12 349.808C1835.54 350.048 1836.05 350.3 1836.65 350.564C1837.25 350.816 1837.89 351.032 1838.56 351.212C1839.24 351.392 1839.91 351.482 1840.57 351.482C1841.68 351.482 1842.51 351.272 1843.06 350.852C1843.61 350.42 1843.89 349.856 1843.89 349.16C1843.89 348.644 1843.71 348.182 1843.36 347.774C1843.02 347.366 1842.49 346.982 1841.8 346.622C1841.1 346.25 1840.23 345.86 1839.19 345.452C1838.14 345.032 1837.17 344.522 1836.25 343.922C1835.35 343.322 1834.62 342.572 1834.06 341.672C1833.49 340.772 1833.21 339.656 1833.21 338.324C1833.21 336.992 1833.58 335.84 1834.33 334.868C1835.08 333.884 1836.07 333.128 1837.3 332.6C1838.53 332.072 1839.85 331.808 1841.26 331.808ZM1852.78 332.24H1861.42C1862.94 332.24 1864.32 332.51 1865.54 333.05C1866.77 333.578 1867.74 334.388 1868.46 335.48C1869.19 336.56 1869.56 337.916 1869.56 339.548C1869.56 341.168 1869.19 342.548 1868.46 343.688C1867.74 344.816 1866.77 345.68 1865.54 346.28C1864.32 346.868 1862.94 347.162 1861.42 347.162H1858.16V356H1852.78V332.24ZM1858.16 342.914H1859.93C1860.66 342.914 1861.31 342.806 1861.89 342.59C1862.48 342.374 1862.94 342.032 1863.29 341.564C1863.64 341.084 1863.81 340.454 1863.81 339.674C1863.81 338.882 1863.64 338.258 1863.29 337.802C1862.94 337.334 1862.48 336.998 1861.89 336.794C1861.31 336.59 1860.66 336.488 1859.93 336.488H1858.16V342.914ZM1877.48 344.102C1877.48 345.458 1877.76 346.688 1878.31 347.792C1878.88 348.884 1879.65 349.754 1880.63 350.402C1881.63 351.05 1882.78 351.374 1884.09 351.374C1885.4 351.374 1886.54 351.05 1887.53 350.402C1888.52 349.754 1889.3 348.884 1889.85 347.792C1890.41 346.688 1890.7 345.458 1890.7 344.102C1890.7 342.746 1890.41 341.522 1889.85 340.43C1889.3 339.338 1888.52 338.468 1887.53 337.82C1886.54 337.16 1885.4 336.83 1884.09 336.83C1882.78 336.83 1881.63 337.16 1880.63 337.82C1879.65 338.468 1878.88 339.338 1878.31 340.43C1877.76 341.522 1877.48 342.746 1877.48 344.102ZM1871.89 344.102C1871.89 342.374 1872.19 340.766 1872.8 339.278C1873.42 337.778 1874.27 336.47 1875.38 335.354C1876.48 334.238 1877.78 333.368 1879.27 332.744C1880.75 332.12 1882.36 331.808 1884.09 331.808C1885.84 331.808 1887.46 332.12 1888.93 332.744C1890.42 333.368 1891.71 334.238 1892.8 335.354C1893.91 336.47 1894.76 337.778 1895.36 339.278C1895.97 340.766 1896.28 342.374 1896.28 344.102C1896.28 345.842 1895.98 347.462 1895.39 348.962C1894.81 350.45 1893.97 351.758 1892.87 352.886C1891.78 354.002 1890.49 354.872 1889 355.496C1887.52 356.12 1885.88 356.432 1884.09 356.432C1882.27 356.432 1880.6 356.12 1879.1 355.496C1877.62 354.872 1876.33 354.002 1875.25 352.886C1874.17 351.758 1873.34 350.45 1872.75 348.962C1872.17 347.462 1871.89 345.842 1871.89 344.102ZM1899.25 332.24H1908.94C1910.32 332.24 1911.55 332.528 1912.63 333.104C1913.71 333.68 1914.56 334.514 1915.18 335.606C1915.82 336.686 1916.14 337.976 1916.14 339.476C1916.14 340.976 1915.87 342.206 1915.33 343.166C1914.8 344.114 1914.16 344.828 1913.42 345.308C1912.68 345.776 1911.99 346.058 1911.35 346.154L1917.13 356H1911.08L1905.93 346.568H1904.64V356H1899.25V332.24ZM1904.64 342.842H1907.01C1907.97 342.842 1908.81 342.608 1909.53 342.14C1910.25 341.672 1910.61 340.844 1910.61 339.656C1910.61 338.468 1910.26 337.646 1909.55 337.19C1908.84 336.722 1908.01 336.488 1907.05 336.488H1904.64V342.842ZM1924.32 336.956H1918.65V332.24H1935.35V336.956H1929.7V356H1924.32V336.956ZM1946.9 331.808C1948.38 331.808 1949.67 331.97 1950.77 332.294C1951.88 332.618 1952.76 332.96 1953.44 333.32C1954.11 333.68 1954.52 333.92 1954.66 334.04L1952.07 338.378C1951.88 338.234 1951.55 338.024 1951.08 337.748C1950.62 337.472 1950.08 337.226 1949.44 337.01C1948.82 336.794 1948.16 336.686 1947.48 336.686C1946.55 336.686 1945.8 336.854 1945.23 337.19C1944.66 337.514 1944.38 338 1944.38 338.648C1944.38 339.092 1944.53 339.494 1944.83 339.854C1945.14 340.202 1945.61 340.538 1946.24 340.862C1946.87 341.174 1947.68 341.516 1948.65 341.888C1949.54 342.212 1950.37 342.596 1951.15 343.04C1951.93 343.484 1952.61 344.012 1953.2 344.624C1953.8 345.224 1954.28 345.92 1954.62 346.712C1954.97 347.504 1955.15 348.404 1955.15 349.412C1955.15 350.612 1954.9 351.656 1954.41 352.544C1953.92 353.42 1953.24 354.146 1952.39 354.722C1951.55 355.298 1950.59 355.724 1949.51 356C1948.44 356.288 1947.33 356.432 1946.18 356.432C1944.55 356.432 1943.09 356.246 1941.79 355.874C1940.51 355.502 1939.47 355.1 1938.68 354.668C1937.88 354.236 1937.41 353.948 1937.25 353.804L1939.94 349.286C1940.08 349.394 1940.36 349.568 1940.76 349.808C1941.18 350.048 1941.69 350.3 1942.29 350.564C1942.89 350.816 1943.53 351.032 1944.2 351.212C1944.89 351.392 1945.56 351.482 1946.22 351.482C1947.32 351.482 1948.15 351.272 1948.7 350.852C1949.25 350.42 1949.53 349.856 1949.53 349.16C1949.53 348.644 1949.36 348.182 1949.01 347.774C1948.66 347.366 1948.14 346.982 1947.44 346.622C1946.75 346.25 1945.88 345.86 1944.83 345.452C1943.79 345.032 1942.81 344.522 1941.9 343.922C1941 343.322 1940.27 342.572 1939.7 341.672C1939.14 340.772 1938.86 339.656 1938.86 338.324C1938.86 336.992 1939.23 335.84 1939.97 334.868C1940.73 333.884 1941.72 333.128 1942.94 332.6C1944.18 332.072 1945.5 331.808 1946.9 331.808Z" fill="white"/>
</g>
<g id="literary">
<path d="M1246.5 884.5L1288 1000M1288 1000L1413.5 1121.5M1288 1000L1330.5 937.5" stroke="white" stroke-width="5"/>
<circle cx="1288.5" cy="1001.5" r="10.5" fill="white" stroke="#32174D" stroke-width="6"/>
<circle cx="1411.5" cy="1124.5" r="10.5" fill="white" stroke="#32174D" stroke-width="6"/>
<circle cx="1329.5" cy="940.5" r="10.5" fill="white" stroke="#32174D" stroke-width="6"/>
<circle cx="1245.5" cy="884.5" r="10.5" fill="white" stroke="#32174D" stroke-width="6"/>
<path d="M1376.68 995.24H1382.06V1014.28H1390.68V1019H1376.68V995.24ZM1394.38 995.24H1399.76V1019H1394.38V995.24ZM1408.07 999.956H1402.4V995.24H1419.1V999.956H1413.45V1019H1408.07V999.956ZM1421.99 995.24H1437.16V999.956H1427.35V1004.8H1437.07V1009.37H1427.35V1014.28H1437.16V1019H1421.99V995.24ZM1441.11 995.24H1450.8C1452.18 995.24 1453.41 995.528 1454.49 996.104C1455.57 996.68 1456.42 997.514 1457.04 998.606C1457.68 999.686 1458 1000.98 1458 1002.48C1458 1003.98 1457.73 1005.21 1457.19 1006.17C1456.66 1007.11 1456.02 1007.83 1455.28 1008.31C1454.53 1008.78 1453.84 1009.06 1453.21 1009.15L1458.99 1019H1452.94L1447.79 1009.57H1446.49V1019H1441.11V995.24ZM1446.49 1005.84H1448.87C1449.83 1005.84 1450.67 1005.61 1451.39 1005.14C1452.11 1004.67 1452.47 1003.84 1452.47 1002.66C1452.47 1001.47 1452.12 1000.65 1451.41 1000.19C1450.7 999.722 1449.87 999.488 1448.91 999.488H1446.49V1005.84ZM1468.51 995.24H1473.85L1483.23 1019H1477.49L1475.76 1014.23H1466.62L1464.87 1019H1459.11L1468.51 995.24ZM1468.42 1009.51H1473.98L1471.22 1001.72H1471.17L1468.42 1009.51ZM1485.02 995.24H1494.71C1496.09 995.24 1497.32 995.528 1498.4 996.104C1499.48 996.68 1500.33 997.514 1500.95 998.606C1501.59 999.686 1501.91 1000.98 1501.91 1002.48C1501.91 1003.98 1501.64 1005.21 1501.1 1006.17C1500.57 1007.11 1499.93 1007.83 1499.19 1008.31C1498.44 1008.78 1497.75 1009.06 1497.12 1009.15L1502.9 1019H1496.85L1491.7 1009.57H1490.4V1019H1485.02V995.24ZM1490.4 1005.84H1492.78C1493.74 1005.84 1494.58 1005.61 1495.3 1005.14C1496.02 1004.67 1496.38 1003.84 1496.38 1002.66C1496.38 1001.47 1496.03 1000.65 1495.32 1000.19C1494.61 999.722 1493.78 999.488 1492.82 999.488H1490.4V1005.84ZM1509.9 1010.45L1501.71 995.24H1508.24L1512.58 1004.29L1516.94 995.24H1523.44L1515.28 1010.45V1019H1509.9V1010.45Z" fill="white"/>
</g>
<svg id="humanities">
<path d="M1151.18 563.442H1142.97V573H1137.6V549.24H1142.97V558.744H1151.18V549.24H1156.52V573H1151.18V563.442ZM1174.33 549.24H1179.71V563.838C1179.71 565.794 1179.33 567.492 1178.56 568.932C1177.79 570.36 1176.69 571.47 1175.27 572.262C1173.84 573.042 1172.13 573.432 1170.15 573.432C1168.16 573.432 1166.45 573.042 1165.01 572.262C1163.57 571.47 1162.46 570.36 1161.69 568.932C1160.94 567.492 1160.56 565.794 1160.56 563.838V549.24H1165.92V563.55C1165.92 564.63 1166.09 565.542 1166.43 566.286C1166.78 567.03 1167.27 567.594 1167.9 567.978C1168.54 568.35 1169.29 568.536 1170.15 568.536C1171.01 568.536 1171.74 568.35 1172.37 567.978C1172.99 567.594 1173.47 567.03 1173.81 566.286C1174.16 565.542 1174.33 564.63 1174.33 563.55V549.24ZM1208.83 549.24V573H1203.46V559.014L1203.7 555.036L1202.78 559.59L1198.78 571.092H1193.51L1189.53 559.59L1188.63 555.036L1188.86 559.014V573H1183.48V549.24H1191.04L1195.83 565.098L1196.15 566.988L1196.48 565.098L1201.27 549.24H1208.83ZM1220.82 549.24H1226.17L1235.55 573H1229.8L1228.08 568.23H1218.93L1217.19 573H1211.43L1220.82 549.24ZM1220.73 563.514H1226.3L1223.54 555.72H1223.49L1220.73 563.514ZM1242.43 554.172L1242.83 554.244V573H1237.45V549.24H1244.79L1254.42 567.96L1254.03 568.032V549.24H1259.41V573H1252.03L1242.43 554.172ZM1263.66 549.24H1269.04V573H1263.66V549.24ZM1277.35 553.956H1271.68V549.24H1288.38V553.956H1282.73V573H1277.35V553.956ZM1291.47 549.24H1296.85V573H1291.47V549.24ZM1301.01 549.24H1316.18V553.956H1306.37V558.798H1316.09V563.37H1306.37V568.284H1316.18V573H1301.01V549.24ZM1328.9 548.808C1330.37 548.808 1331.66 548.97 1332.77 549.294C1333.87 549.618 1334.76 549.96 1335.43 550.32C1336.1 550.68 1336.51 550.92 1336.66 551.04L1334.06 555.378C1333.87 555.234 1333.54 555.024 1333.07 554.748C1332.62 554.472 1332.07 554.226 1331.44 554.01C1330.81 553.794 1330.16 553.686 1329.47 553.686C1328.55 553.686 1327.8 553.854 1327.22 554.19C1326.66 554.514 1326.38 555 1326.38 555.648C1326.38 556.092 1326.53 556.494 1326.83 556.854C1327.14 557.202 1327.61 557.538 1328.23 557.862C1328.87 558.174 1329.67 558.516 1330.64 558.888C1331.53 559.212 1332.37 559.596 1333.15 560.04C1333.93 560.484 1334.61 561.012 1335.2 561.624C1335.8 562.224 1336.27 562.92 1336.62 563.712C1336.97 564.504 1337.14 565.404 1337.14 566.412C1337.14 567.612 1336.9 568.656 1336.4 569.544C1335.91 570.42 1335.24 571.146 1334.39 571.722C1333.55 572.298 1332.59 572.724 1331.51 573C1330.44 573.288 1329.33 573.432 1328.18 573.432C1326.55 573.432 1325.08 573.246 1323.79 572.874C1322.5 572.502 1321.46 572.1 1320.67 571.668C1319.88 571.236 1319.41 570.948 1319.25 570.804L1321.93 566.286C1322.08 566.394 1322.35 566.568 1322.76 566.808C1323.18 567.048 1323.69 567.3 1324.29 567.564C1324.89 567.816 1325.53 568.032 1326.2 568.212C1326.88 568.392 1327.55 568.482 1328.21 568.482C1329.32 568.482 1330.15 568.272 1330.7 567.852C1331.25 567.42 1331.53 566.856 1331.53 566.16C1331.53 565.644 1331.35 565.182 1331 564.774C1330.66 564.366 1330.13 563.982 1329.44 563.622C1328.74 563.25 1327.87 562.86 1326.83 562.452C1325.78 562.032 1324.81 561.522 1323.89 560.922C1322.99 560.322 1322.26 559.572 1321.7 558.672C1321.13 557.772 1320.85 556.656 1320.85 555.324C1320.85 553.992 1321.22 552.84 1321.97 551.868C1322.72 550.884 1323.71 550.128 1324.94 549.6C1326.17 549.072 1327.49 548.808 1328.9 548.808Z" fill="white"/>
<path d="M1273.5 406.5L1473.5 554.5L1318 658.5" stroke="white" stroke-width="5"/>
<circle cx="1273.5" cy="405.5" r="10.5" fill="white" stroke="#32174D" stroke-width="6"/>
<circle cx="1472.5" cy="553.5" r="10.5" fill="white" stroke="#32174D" stroke-width="6"/>
<circle cx="1316.5" cy="657.5" r="10.5" fill="white" stroke="#32174D" stroke-width="6"/>
</svg>
<g id="environment">
<path d="M126 946L272 1069" stroke="white" stroke-width="5"/>
<path d="M239.869 957.24H255.043V961.956H245.233V966.798H254.953V971.37H245.233V976.284H255.043V981H239.869V957.24ZM264.085 962.172L264.481 962.244V981H259.099V957.24H266.443L276.073 975.96L275.677 976.032V957.24H281.059V981H273.679L264.085 962.172ZM298.291 981H292.207L283.747 957.24H289.813L295.249 974.142L300.685 957.24H306.751L298.291 981ZM309.606 957.24H314.988V981H309.606V957.24ZM319.038 957.24H328.722C330.102 957.24 331.332 957.528 332.412 958.104C333.492 958.68 334.344 959.514 334.968 960.606C335.604 961.686 335.922 962.976 335.922 964.476C335.922 965.976 335.652 967.206 335.112 968.166C334.584 969.114 333.948 969.828 333.204 970.308C332.46 970.776 331.77 971.058 331.134 971.154L336.912 981H330.864L325.716 971.568H324.42V981H319.038V957.24ZM324.42 967.842H326.796C327.756 967.842 328.596 967.608 329.316 967.14C330.036 966.672 330.396 965.844 330.396 964.656C330.396 963.468 330.042 962.646 329.334 962.19C328.626 961.722 327.792 961.488 326.832 961.488H324.42V967.842ZM344.027 969.102C344.027 970.458 344.303 971.688 344.855 972.792C345.419 973.884 346.193 974.754 347.177 975.402C348.173 976.05 349.325 976.374 350.633 976.374C351.941 976.374 353.087 976.05 354.071 975.402C355.067 974.754 355.841 973.884 356.393 972.792C356.957 971.688 357.239 970.458 357.239 969.102C357.239 967.746 356.957 966.522 356.393 965.43C355.841 964.338 355.067 963.468 354.071 962.82C353.087 962.16 351.941 961.83 350.633 961.83C349.325 961.83 348.173 962.16 347.177 962.82C346.193 963.468 345.419 964.338 344.855 965.43C344.303 966.522 344.027 967.746 344.027 969.102ZM338.429 969.102C338.429 967.374 338.735 965.766 339.347 964.278C339.959 962.778 340.817 961.47 341.921 960.354C343.025 959.238 344.321 958.368 345.809 957.744C347.297 957.12 348.905 956.808 350.633 956.808C352.385 956.808 353.999 957.12 355.475 957.744C356.963 958.368 358.253 959.238 359.345 960.354C360.449 961.47 361.301 962.778 361.901 964.278C362.513 965.766 362.819 967.374 362.819 969.102C362.819 970.842 362.525 972.462 361.937 973.962C361.349 975.45 360.509 976.758 359.417 977.886C358.325 979.002 357.035 979.872 355.547 980.496C354.059 981.12 352.421 981.432 350.633 981.432C348.809 981.432 347.147 981.12 345.647 980.496C344.159 979.872 342.875 979.002 341.795 977.886C340.715 976.758 339.881 975.45 339.293 973.962C338.717 972.462 338.429 970.842 338.429 969.102ZM370.89 962.172L371.286 962.244V981H365.904V957.24H373.248L382.878 975.96L382.482 976.032V957.24H387.864V981H380.484L370.89 962.172ZM417.228 957.24V981H411.864V967.014L412.098 963.036L411.18 967.59L407.184 979.092H401.91L397.932 967.59L397.032 963.036L397.266 967.014V981H391.884V957.24H399.444L404.232 973.098L404.556 974.988L404.88 973.098L409.668 957.24H417.228ZM421.521 957.24H436.695V961.956H426.885V966.798H436.605V971.37H426.885V976.284H436.695V981H421.521V957.24ZM445.738 962.172L446.134 962.244V981H440.752V957.24H448.096L457.726 975.96L457.33 976.032V957.24H462.712V981H455.332L445.738 962.172ZM471.195 961.956H465.525V957.24H482.229V961.956H476.577V981H471.195V961.956Z" fill="white"/>
<circle cx="128.5" cy="948.5" r="10.5" fill="white" stroke="#32174D" stroke-width="6"/>
<circle cx="273.5" cy="1068.5" r="10.5" fill="white" stroke="#32174D" stroke-width="6"/>
</g>
<g id="commerce">
<path d="M855.162 380.104C856.266 380.104 857.268 379.942 858.168 379.618C859.08 379.294 859.758 378.976 860.202 378.664L862.506 383.236C861.942 383.716 860.976 384.202 859.608 384.694C858.252 385.186 856.638 385.432 854.766 385.432C853.014 385.432 851.37 385.126 849.834 384.514C848.298 383.902 846.942 383.044 845.766 381.94C844.602 380.824 843.684 379.522 843.012 378.034C842.352 376.534 842.022 374.908 842.022 373.156C842.022 371.404 842.352 369.778 843.012 368.278C843.672 366.766 844.584 365.452 845.748 364.336C846.924 363.22 848.28 362.356 849.816 361.744C851.364 361.12 853.014 360.808 854.766 360.808C856.638 360.808 858.252 361.054 859.608 361.546C860.976 362.038 861.942 362.524 862.506 363.004L860.202 367.576C859.758 367.252 859.08 366.934 858.168 366.622C857.268 366.298 856.266 366.136 855.162 366.136C853.938 366.136 852.87 366.328 851.958 366.712C851.046 367.084 850.284 367.6 849.672 368.26C849.06 368.92 848.604 369.664 848.304 370.492C848.004 371.32 847.854 372.19 847.854 373.102C847.854 374.026 848.004 374.908 848.304 375.748C848.604 376.576 849.06 377.32 849.672 377.98C850.284 378.64 851.046 379.162 851.958 379.546C852.87 379.918 853.938 380.104 855.162 380.104ZM870.625 373.102C870.625 374.458 870.901 375.688 871.453 376.792C872.017 377.884 872.791 378.754 873.775 379.402C874.771 380.05 875.923 380.374 877.231 380.374C878.539 380.374 879.685 380.05 880.669 379.402C881.665 378.754 882.439 377.884 882.991 376.792C883.555 375.688 883.837 374.458 883.837 373.102C883.837 371.746 883.555 370.522 882.991 369.43C882.439 368.338 881.665 367.468 880.669 366.82C879.685 366.16 878.539 365.83 877.231 365.83C875.923 365.83 874.771 366.16 873.775 366.82C872.791 367.468 872.017 368.338 871.453 369.43C870.901 370.522 870.625 371.746 870.625 373.102ZM865.027 373.102C865.027 371.374 865.333 369.766 865.945 368.278C866.557 366.778 867.415 365.47 868.519 364.354C869.623 363.238 870.919 362.368 872.407 361.744C873.895 361.12 875.503 360.808 877.231 360.808C878.983 360.808 880.597 361.12 882.073 361.744C883.561 362.368 884.851 363.238 885.943 364.354C887.047 365.47 887.899 366.778 888.499 368.278C889.111 369.766 889.417 371.374 889.417 373.102C889.417 374.842 889.123 376.462 888.535 377.962C887.947 379.45 887.107 380.758 886.015 381.886C884.923 383.002 883.633 383.872 882.145 384.496C880.657 385.12 879.019 385.432 877.231 385.432C875.407 385.432 873.745 385.12 872.245 384.496C870.757 383.872 869.473 383.002 868.393 381.886C867.313 380.758 866.479 379.45 865.891 377.962C865.315 376.462 865.027 374.842 865.027 373.102ZM917.81 361.24V385H912.446V371.014L912.68 367.036L911.762 371.59L907.766 383.092H902.492L898.514 371.59L897.614 367.036L897.848 371.014V385H892.466V361.24H900.026L904.814 377.098L905.138 378.988L905.462 377.098L910.25 361.24H917.81ZM947.411 361.24V385H942.047V371.014L942.281 367.036L941.363 371.59L937.367 383.092H932.093L928.115 371.59L927.215 367.036L927.449 371.014V385H922.067V361.24H929.627L934.415 377.098L934.739 378.988L935.063 377.098L939.851 361.24H947.411ZM951.705 361.24H966.879V365.956H957.069V370.798H966.789V375.37H957.069V380.284H966.879V385H951.705V361.24ZM970.827 361.24H980.511C981.891 361.24 983.121 361.528 984.201 362.104C985.281 362.68 986.133 363.514 986.757 364.606C987.393 365.686 987.711 366.976 987.711 368.476C987.711 369.976 987.441 371.206 986.901 372.166C986.373 373.114 985.737 373.828 984.993 374.308C984.249 374.776 983.559 375.058 982.923 375.154L988.701 385H982.653L977.505 375.568H976.209V385H970.827V361.24ZM976.209 371.842H978.585C979.545 371.842 980.385 371.608 981.105 371.14C981.825 370.672 982.185 369.844 982.185 368.656C982.185 367.468 981.831 366.646 981.123 366.19C980.415 365.722 979.581 365.488 978.621 365.488H976.209V371.842ZM1003.56 380.104C1004.66 380.104 1005.66 379.942 1006.56 379.618C1007.47 379.294 1008.15 378.976 1008.6 378.664L1010.9 383.236C1010.34 383.716 1009.37 384.202 1008 384.694C1006.65 385.186 1005.03 385.432 1003.16 385.432C1001.41 385.432 999.764 385.126 998.228 384.514C996.692 383.902 995.336 383.044 994.16 381.94C992.996 380.824 992.078 379.522 991.406 378.034C990.746 376.534 990.416 374.908 990.416 373.156C990.416 371.404 990.746 369.778 991.406 368.278C992.066 366.766 992.978 365.452 994.142 364.336C995.318 363.22 996.674 362.356 998.21 361.744C999.758 361.12 1001.41 360.808 1003.16 360.808C1005.03 360.808 1006.65 361.054 1008 361.546C1009.37 362.038 1010.34 362.524 1010.9 363.004L1008.6 367.576C1008.15 367.252 1007.47 366.934 1006.56 366.622C1005.66 366.298 1004.66 366.136 1003.56 366.136C1002.33 366.136 1001.26 366.328 1000.35 366.712C999.44 367.084 998.678 367.6 998.066 368.26C997.454 368.92 996.998 369.664 996.698 370.492C996.398 371.32 996.248 372.19 996.248 373.102C996.248 374.026 996.398 374.908 996.698 375.748C996.998 376.576 997.454 377.32 998.066 377.98C998.678 378.64 999.44 379.162 1000.35 379.546C1001.26 379.918 1002.33 380.104 1003.56 380.104ZM1014.18 361.24H1029.35V365.956H1019.54V370.798H1029.26V375.37H1019.54V380.284H1029.35V385H1014.18V361.24Z" fill="white"/>
<path d="M936 109.5L608.5 171.5L645.5 347.5L990 260.5" stroke="white" stroke-width="5"/>
<circle cx="609.5" cy="170.5" r="10.5" fill="white" stroke="#32174D" stroke-width="6"/>
<circle cx="935.5" cy="108.5" r="10.5" fill="white" stroke="#32174D" stroke-width="6"/>
<circle cx="990.5" cy="258.5" r="10.5" fill="white" stroke="#32174D" stroke-width="6"/>
<circle cx="646.5" cy="344.5" r="10.5" fill="white" stroke="#32174D" stroke-width="6"/>
</g>
<g id="science">
<path d="M323.269 624.808C324.745 624.808 326.035 624.97 327.139 625.294C328.243 625.618 329.131 625.96 329.803 626.32C330.475 626.68 330.883 626.92 331.027 627.04L328.435 631.378C328.243 631.234 327.913 631.024 327.445 630.748C326.989 630.472 326.443 630.226 325.807 630.01C325.183 629.794 324.529 629.686 323.845 629.686C322.921 629.686 322.171 629.854 321.595 630.19C321.031 630.514 320.749 631 320.749 631.648C320.749 632.092 320.899 632.494 321.199 632.854C321.511 633.202 321.979 633.538 322.603 633.862C323.239 634.174 324.043 634.516 325.015 634.888C325.903 635.212 326.737 635.596 327.517 636.04C328.297 636.484 328.981 637.012 329.569 637.624C330.169 638.224 330.643 638.92 330.991 639.712C331.339 640.504 331.513 641.404 331.513 642.412C331.513 643.612 331.267 644.656 330.775 645.544C330.283 646.42 329.611 647.146 328.759 647.722C327.919 648.298 326.959 648.724 325.879 649C324.811 649.288 323.701 649.432 322.549 649.432C320.917 649.432 319.453 649.246 318.157 648.874C316.873 648.502 315.835 648.1 315.043 647.668C314.251 647.236 313.777 646.948 313.621 646.804L316.303 642.286C316.447 642.394 316.723 642.568 317.131 642.808C317.551 643.048 318.061 643.3 318.661 643.564C319.261 643.816 319.897 644.032 320.569 644.212C321.253 644.392 321.925 644.482 322.585 644.482C323.689 644.482 324.517 644.272 325.069 643.852C325.621 643.42 325.897 642.856 325.897 642.16C325.897 641.644 325.723 641.182 325.375 640.774C325.027 640.366 324.505 639.982 323.809 639.622C323.113 639.25 322.243 638.86 321.199 638.452C320.155 638.032 319.177 637.522 318.265 636.922C317.365 636.322 316.633 635.572 316.069 634.672C315.505 633.772 315.223 632.656 315.223 631.324C315.223 629.992 315.595 628.84 316.339 627.868C317.095 626.884 318.085 626.128 319.309 625.6C320.545 625.072 321.865 624.808 323.269 624.808ZM347.338 644.104C348.442 644.104 349.444 643.942 350.344 643.618C351.256 643.294 351.934 642.976 352.378 642.664L354.682 647.236C354.118 647.716 353.152 648.202 351.784 648.694C350.428 649.186 348.814 649.432 346.942 649.432C345.19 649.432 343.546 649.126 342.01 648.514C340.474 647.902 339.118 647.044 337.942 645.94C336.778 644.824 335.86 643.522 335.188 642.034C334.528 640.534 334.198 638.908 334.198 637.156C334.198 635.404 334.528 633.778 335.188 632.278C335.848 630.766 336.76 629.452 337.924 628.336C339.1 627.22 340.456 626.356 341.992 625.744C343.54 625.12 345.19 624.808 346.942 624.808C348.814 624.808 350.428 625.054 351.784 625.546C353.152 626.038 354.118 626.524 354.682 627.004L352.378 631.576C351.934 631.252 351.256 630.934 350.344 630.622C349.444 630.298 348.442 630.136 347.338 630.136C346.114 630.136 345.046 630.328 344.134 630.712C343.222 631.084 342.46 631.6 341.848 632.26C341.236 632.92 340.78 633.664 340.48 634.492C340.18 635.32 340.03 636.19 340.03 637.102C340.03 638.026 340.18 638.908 340.48 639.748C340.78 640.576 341.236 641.32 341.848 641.98C342.46 642.64 343.222 643.162 344.134 643.546C345.046 643.918 346.114 644.104 347.338 644.104ZM358.157 625.24H363.539V649H358.157V625.24ZM367.697 625.24H382.871V629.956H373.061V634.798H382.781V639.37H373.061V644.284H382.871V649H367.697V625.24ZM391.914 630.172L392.31 630.244V649H386.928V625.24H394.272L403.902 643.96L403.506 644.032V625.24H408.888V649H401.508L391.914 630.172ZM425.525 644.104C426.629 644.104 427.631 643.942 428.531 643.618C429.443 643.294 430.121 642.976 430.565 642.664L432.869 647.236C432.305 647.716 431.339 648.202 429.971 648.694C428.615 649.186 427.001 649.432 425.129 649.432C423.377 649.432 421.733 649.126 420.197 648.514C418.661 647.902 417.305 647.044 416.129 645.94C414.965 644.824 414.047 643.522 413.375 642.034C412.715 640.534 412.385 638.908 412.385 637.156C412.385 635.404 412.715 633.778 413.375 632.278C414.035 630.766 414.947 629.452 416.111 628.336C417.287 627.22 418.643 626.356 420.179 625.744C421.727 625.12 423.377 624.808 425.129 624.808C427.001 624.808 428.615 625.054 429.971 625.546C431.339 626.038 432.305 626.524 432.869 627.004L430.565 631.576C430.121 631.252 429.443 630.934 428.531 630.622C427.631 630.298 426.629 630.136 425.525 630.136C424.301 630.136 423.233 630.328 422.321 630.712C421.409 631.084 420.647 631.6 420.035 632.26C419.423 632.92 418.967 633.664 418.667 634.492C418.367 635.32 418.217 636.19 418.217 637.102C418.217 638.026 418.367 638.908 418.667 639.748C418.967 640.576 419.423 641.32 420.035 641.98C420.647 642.64 421.409 643.162 422.321 643.546C423.233 643.918 424.301 644.104 425.525 644.104ZM436.146 625.24H451.32V629.956H441.51V634.798H451.23V639.37H441.51V644.284H451.32V649H436.146V625.24Z" fill="white"/>
<path d="M484.5 509L281 532M281 532L135.5 665M281 532L192.5 354" stroke="white" stroke-width="5"/>
<circle cx="135.5" cy="664.5" r="10.5" fill="white" stroke="#32174D" stroke-width="6"/>
<circle cx="192.5" cy="352.5" r="10.5" fill="white" stroke="#32174D" stroke-width="6"/>
<circle cx="483.5" cy="507.5" r="10.5" fill="white" stroke="#32174D" stroke-width="6"/>
<circle cx="281.5" cy="530.5" r="10.5" fill="white" stroke="#32174D" stroke-width="6"/>
</g>
<g id="cultural">
<path d="M864.092 889.104C865.196 889.104 866.198 888.942 867.098 888.618C868.01 888.294 868.688 887.976 869.132 887.664L871.436 892.236C870.872 892.716 869.906 893.202 868.538 893.694C867.182 894.186 865.568 894.432 863.696 894.432C861.944 894.432 860.3 894.126 858.764 893.514C857.228 892.902 855.872 892.044 854.696 890.94C853.532 889.824 852.614 888.522 851.942 887.034C851.282 885.534 850.952 883.908 850.952 882.156C850.952 880.404 851.282 878.778 851.942 877.278C852.602 875.766 853.514 874.452 854.678 873.336C855.854 872.22 857.21 871.356 858.746 870.744C860.294 870.12 861.944 869.808 863.696 869.808C865.568 869.808 867.182 870.054 868.538 870.546C869.906 871.038 870.872 871.524 871.436 872.004L869.132 876.576C868.688 876.252 868.01 875.934 867.098 875.622C866.198 875.298 865.196 875.136 864.092 875.136C862.868 875.136 861.8 875.328 860.888 875.712C859.976 876.084 859.214 876.6 858.602 877.26C857.99 877.92 857.534 878.664 857.234 879.492C856.934 880.32 856.784 881.19 856.784 882.102C856.784 883.026 856.934 883.908 857.234 884.748C857.534 885.576 857.99 886.32 858.602 886.98C859.214 887.64 859.976 888.162 860.888 888.546C861.8 888.918 862.868 889.104 864.092 889.104ZM888.447 870.24H893.829V884.838C893.829 886.794 893.445 888.492 892.677 889.932C891.909 891.36 890.811 892.47 889.383 893.262C887.955 894.042 886.251 894.432 884.271 894.432C882.279 894.432 880.563 894.042 879.123 893.262C877.683 892.47 876.579 891.36 875.811 889.932C875.055 888.492 874.677 886.794 874.677 884.838V870.24H880.041V884.55C880.041 885.63 880.209 886.542 880.545 887.286C880.893 888.03 881.385 888.594 882.021 888.978C882.657 889.35 883.407 889.536 884.271 889.536C885.123 889.536 885.861 889.35 886.485 888.978C887.109 888.594 887.589 888.03 887.925 887.286C888.273 886.542 888.447 885.63 888.447 884.55V870.24ZM897.779 870.24H903.161V889.284H911.783V894H897.779V870.24ZM917.074 874.956H911.404V870.24H928.108V874.956H922.456V894H917.074V874.956ZM944.732 870.24H950.114V884.838C950.114 886.794 949.73 888.492 948.962 889.932C948.194 891.36 947.096 892.47 945.668 893.262C944.24 894.042 942.536 894.432 940.556 894.432C938.564 894.432 936.848 894.042 935.408 893.262C933.968 892.47 932.864 891.36 932.096 889.932C931.34 888.492 930.962 886.794 930.962 884.838V870.24H936.326V884.55C936.326 885.63 936.494 886.542 936.83 887.286C937.178 888.03 937.67 888.594 938.306 888.978C938.942 889.35 939.692 889.536 940.556 889.536C941.408 889.536 942.146 889.35 942.77 888.978C943.394 888.594 943.874 888.03 944.21 887.286C944.558 886.542 944.732 885.63 944.732 884.55V870.24ZM953.812 870.24H963.496C964.876 870.24 966.106 870.528 967.186 871.104C968.266 871.68 969.118 872.514 969.742 873.606C970.378 874.686 970.696 875.976 970.696 877.476C970.696 878.976 970.426 880.206 969.886 881.166C969.358 882.114 968.722 882.828 967.978 883.308C967.234 883.776 966.544 884.058 965.908 884.154L971.686 894H965.638L960.49 884.568H959.194V894H953.812V870.24ZM959.194 880.842H961.57C962.53 880.842 963.37 880.608 964.09 880.14C964.81 879.672 965.17 878.844 965.17 877.656C965.17 876.468 964.816 875.646 964.108 875.19C963.4 874.722 962.566 874.488 961.606 874.488H959.194V880.842ZM981.206 870.24H986.552L995.93 894H990.188L988.46 889.23H979.316L977.57 894H971.81L981.206 870.24ZM981.116 884.514H986.678L983.924 876.72H983.87L981.116 884.514ZM997.974 870.24H1003.36V889.284H1011.98V894H997.974V870.24Z" fill="white"/>
<path d="M723 862L902.5 778.5M902.5 778.5L927 625L752.5 664L902.5 778.5Z" stroke="white" stroke-width="5"/>
<circle cx="752.5" cy="663.5" r="10.5" fill="white" stroke="#32174D" stroke-width="6"/>
<circle cx="924.5" cy="625.5" r="10.5" fill="white" stroke="#32174D" stroke-width="6"/>
<circle cx="722.5" cy="861.5" r="10.5" fill="white" stroke="#32174D" stroke-width="6"/>
<circle cx="901.5" cy="778.5" r="10.5" fill="white" stroke="#32174D" stroke-width="6"/>
</g>
</svg>
