<svg width="739" height="3551" viewBox="0 0 739 3551" fill="none" xmlns="http://www.w3.org/2000/svg">
<rect width="739" height="3551" fill="#32174D"/>
<g id="svg-techsprint">
<rect width="403" height="335" transform="translate(169 3058)" fill="#32174D"/>
<path d="M177 3067L300.822 3187.63M300.822 3187.63L455 3261.13L204.96 3353L300.822 3187.63Z" stroke="white" stroke-width="5"/>
<circle cx="176.5" cy="3065.5" r="10.5" fill="white" stroke="#32174D" stroke-width="6"/>
<circle cx="206.5" cy="3352.5" r="10.5" fill="white" stroke="#32174D" stroke-width="6"/>
<circle cx="454.5" cy="3260.5" r="10.5" fill="white" stroke="#32174D" stroke-width="6"/>
<circle cx="301.5" cy="3187.5" r="10.5" fill="white" stroke="#32174D" stroke-width="6"/>
<path d="M378.307 3365.96H372.637V3361.24H389.341V3365.96H383.689V3385H378.307V3365.96ZM392.23 3361.24H407.404V3365.96H397.594V3370.8H407.314V3375.37H397.594V3380.28H407.404V3385H392.23V3361.24ZM424.043 3380.1C425.147 3380.1 426.149 3379.94 427.049 3379.62C427.961 3379.29 428.639 3378.98 429.083 3378.66L431.387 3383.24C430.823 3383.72 429.857 3384.2 428.489 3384.69C427.133 3385.19 425.519 3385.43 423.647 3385.43C421.895 3385.43 420.251 3385.13 418.715 3384.51C417.179 3383.9 415.823 3383.04 414.647 3381.94C413.483 3380.82 412.565 3379.52 411.893 3378.03C411.233 3376.53 410.903 3374.91 410.903 3373.16C410.903 3371.4 411.233 3369.78 411.893 3368.28C412.553 3366.77 413.465 3365.45 414.629 3364.34C415.805 3363.22 417.161 3362.36 418.697 3361.74C420.245 3361.12 421.895 3360.81 423.647 3360.81C425.519 3360.81 427.133 3361.05 428.489 3361.55C429.857 3362.04 430.823 3362.52 431.387 3363L429.083 3367.58C428.639 3367.25 427.961 3366.93 427.049 3366.62C426.149 3366.3 425.147 3366.14 424.043 3366.14C422.819 3366.14 421.751 3366.33 420.839 3366.71C419.927 3367.08 419.165 3367.6 418.553 3368.26C417.941 3368.92 417.485 3369.66 417.185 3370.49C416.885 3371.32 416.735 3372.19 416.735 3373.1C416.735 3374.03 416.885 3374.91 417.185 3375.75C417.485 3376.58 417.941 3377.32 418.553 3377.98C419.165 3378.64 419.927 3379.16 420.839 3379.55C421.751 3379.92 422.819 3380.1 424.043 3380.1ZM448.236 3375.44H440.028V3385H434.664V3361.24H440.028V3370.74H448.236V3361.24H453.582V3385H448.236V3375.44ZM466.314 3360.81C467.79 3360.81 469.08 3360.97 470.184 3361.29C471.288 3361.62 472.176 3361.96 472.848 3362.32C473.52 3362.68 473.928 3362.92 474.072 3363.04L471.48 3367.38C471.288 3367.23 470.958 3367.02 470.49 3366.75C470.034 3366.47 469.488 3366.23 468.852 3366.01C468.228 3365.79 467.574 3365.69 466.89 3365.69C465.966 3365.69 465.216 3365.85 464.64 3366.19C464.076 3366.51 463.794 3367 463.794 3367.65C463.794 3368.09 463.944 3368.49 464.244 3368.85C464.556 3369.2 465.024 3369.54 465.648 3369.86C466.284 3370.17 467.088 3370.52 468.06 3370.89C468.948 3371.21 469.782 3371.6 470.562 3372.04C471.342 3372.48 472.026 3373.01 472.614 3373.62C473.214 3374.22 473.688 3374.92 474.036 3375.71C474.384 3376.5 474.558 3377.4 474.558 3378.41C474.558 3379.61 474.312 3380.66 473.82 3381.54C473.328 3382.42 472.656 3383.15 471.804 3383.72C470.964 3384.3 470.004 3384.72 468.924 3385C467.856 3385.29 466.746 3385.43 465.594 3385.43C463.962 3385.43 462.498 3385.25 461.202 3384.87C459.918 3384.5 458.88 3384.1 458.088 3383.67C457.296 3383.24 456.822 3382.95 456.666 3382.8L459.348 3378.29C459.492 3378.39 459.768 3378.57 460.176 3378.81C460.596 3379.05 461.106 3379.3 461.706 3379.56C462.306 3379.82 462.942 3380.03 463.614 3380.21C464.298 3380.39 464.97 3380.48 465.63 3380.48C466.734 3380.48 467.562 3380.27 468.114 3379.85C468.666 3379.42 468.942 3378.86 468.942 3378.16C468.942 3377.64 468.768 3377.18 468.42 3376.77C468.072 3376.37 467.55 3375.98 466.854 3375.62C466.158 3375.25 465.288 3374.86 464.244 3374.45C463.2 3374.03 462.222 3373.52 461.31 3372.92C460.41 3372.32 459.678 3371.57 459.114 3370.67C458.55 3369.77 458.268 3368.66 458.268 3367.32C458.268 3365.99 458.64 3364.84 459.384 3363.87C460.14 3362.88 461.13 3362.13 462.354 3361.6C463.59 3361.07 464.91 3360.81 466.314 3360.81ZM477.837 3361.24H486.477C488.001 3361.24 489.375 3361.51 490.599 3362.05C491.823 3362.58 492.795 3363.39 493.515 3364.48C494.247 3365.56 494.613 3366.92 494.613 3368.55C494.613 3370.17 494.247 3371.55 493.515 3372.69C492.795 3373.82 491.823 3374.68 490.599 3375.28C489.375 3375.87 488.001 3376.16 486.477 3376.16H483.219V3385H477.837V3361.24ZM483.219 3371.91H484.983C485.715 3371.91 486.369 3371.81 486.945 3371.59C487.533 3371.37 488.001 3371.03 488.349 3370.56C488.697 3370.08 488.871 3369.45 488.871 3368.67C488.871 3367.88 488.697 3367.26 488.349 3366.8C488.001 3366.33 487.533 3366 486.945 3365.79C486.369 3365.59 485.715 3365.49 484.983 3365.49H483.219V3371.91ZM497.591 3361.24H507.275C508.655 3361.24 509.885 3361.53 510.965 3362.1C512.045 3362.68 512.897 3363.51 513.521 3364.61C514.157 3365.69 514.475 3366.98 514.475 3368.48C514.475 3369.98 514.205 3371.21 513.665 3372.17C513.137 3373.11 512.501 3373.83 511.757 3374.31C511.013 3374.78 510.323 3375.06 509.687 3375.15L515.465 3385H509.417L504.269 3375.57H502.973V3385H497.591V3361.24ZM502.973 3371.84H505.349C506.309 3371.84 507.149 3371.61 507.869 3371.14C508.589 3370.67 508.949 3369.84 508.949 3368.66C508.949 3367.47 508.595 3366.65 507.887 3366.19C507.179 3365.72 506.345 3365.49 505.385 3365.49H502.973V3371.84ZM519.202 3361.24H524.584V3385H519.202V3361.24ZM533.728 3366.17L534.124 3366.24V3385H528.742V3361.24H536.086L545.716 3379.96L545.32 3380.03V3361.24H550.702V3385H543.322L533.728 3366.17ZM559.186 3365.96H553.516V3361.24H570.22V3365.96H564.568V3385H559.186V3365.96Z" fill="white"/>
</g>
<g id="svg-sports">
<rect width="341" height="241" transform="translate(200 1515)" fill="#32174D"/>
<path d="M227.5 1520.5L208.5 1691L320 1750L436 1542" stroke="white" stroke-width="5"/>
<circle cx="227.5" cy="1522.5" r="10.5" fill="white" stroke="#32174D" stroke-width="6"/>
<circle cx="435.5" cy="1542.5" r="10.5" fill="white" stroke="#32174D" stroke-width="6"/>
<circle cx="207.5" cy="1690.5" r="10.5" fill="white" stroke="#32174D" stroke-width="6"/>
<circle cx="319.5" cy="1748.5" r="10.5" fill="white" stroke="#32174D" stroke-width="6"/>
<path d="M425.257 1716.81C426.733 1716.81 428.023 1716.97 429.127 1717.29C430.231 1717.62 431.119 1717.96 431.791 1718.32C432.463 1718.68 432.871 1718.92 433.015 1719.04L430.423 1723.38C430.231 1723.23 429.901 1723.02 429.433 1722.75C428.977 1722.47 428.431 1722.23 427.795 1722.01C427.171 1721.79 426.517 1721.69 425.833 1721.69C424.909 1721.69 424.159 1721.85 423.583 1722.19C423.019 1722.51 422.737 1723 422.737 1723.65C422.737 1724.09 422.887 1724.49 423.187 1724.85C423.499 1725.2 423.967 1725.54 424.591 1725.86C425.227 1726.17 426.031 1726.52 427.003 1726.89C427.891 1727.21 428.725 1727.6 429.505 1728.04C430.285 1728.48 430.969 1729.01 431.557 1729.62C432.157 1730.22 432.631 1730.92 432.979 1731.71C433.327 1732.5 433.501 1733.4 433.501 1734.41C433.501 1735.61 433.255 1736.66 432.763 1737.54C432.271 1738.42 431.599 1739.15 430.747 1739.72C429.907 1740.3 428.947 1740.72 427.867 1741C426.799 1741.29 425.689 1741.43 424.537 1741.43C422.905 1741.43 421.441 1741.25 420.145 1740.87C418.861 1740.5 417.823 1740.1 417.031 1739.67C416.239 1739.24 415.765 1738.95 415.609 1738.8L418.291 1734.29C418.435 1734.39 418.711 1734.57 419.119 1734.81C419.539 1735.05 420.049 1735.3 420.649 1735.56C421.249 1735.82 421.885 1736.03 422.557 1736.21C423.241 1736.39 423.913 1736.48 424.573 1736.48C425.677 1736.48 426.505 1736.27 427.057 1735.85C427.609 1735.42 427.885 1734.86 427.885 1734.16C427.885 1733.64 427.711 1733.18 427.363 1732.77C427.015 1732.37 426.493 1731.98 425.797 1731.62C425.101 1731.25 424.231 1730.86 423.187 1730.45C422.143 1730.03 421.165 1729.52 420.253 1728.92C419.353 1728.32 418.621 1727.57 418.057 1726.67C417.493 1725.77 417.211 1724.66 417.211 1723.32C417.211 1721.99 417.583 1720.84 418.327 1719.87C419.083 1718.88 420.073 1718.13 421.297 1717.6C422.533 1717.07 423.853 1716.81 425.257 1716.81ZM436.78 1717.24H445.42C446.944 1717.24 448.318 1717.51 449.542 1718.05C450.766 1718.58 451.738 1719.39 452.458 1720.48C453.19 1721.56 453.556 1722.92 453.556 1724.55C453.556 1726.17 453.19 1727.55 452.458 1728.69C451.738 1729.82 450.766 1730.68 449.542 1731.28C448.318 1731.87 446.944 1732.16 445.42 1732.16H442.162V1741H436.78V1717.24ZM442.162 1727.91H443.926C444.658 1727.91 445.312 1727.81 445.888 1727.59C446.476 1727.37 446.944 1727.03 447.292 1726.56C447.64 1726.08 447.814 1725.45 447.814 1724.67C447.814 1723.88 447.64 1723.26 447.292 1722.8C446.944 1722.33 446.476 1722 445.888 1721.79C445.312 1721.59 444.658 1721.49 443.926 1721.49H442.162V1727.91ZM461.484 1729.1C461.484 1730.46 461.76 1731.69 462.312 1732.79C462.876 1733.88 463.65 1734.75 464.634 1735.4C465.63 1736.05 466.782 1736.37 468.09 1736.37C469.398 1736.37 470.544 1736.05 471.528 1735.4C472.524 1734.75 473.298 1733.88 473.85 1732.79C474.414 1731.69 474.696 1730.46 474.696 1729.1C474.696 1727.75 474.414 1726.52 473.85 1725.43C473.298 1724.34 472.524 1723.47 471.528 1722.82C470.544 1722.16 469.398 1721.83 468.09 1721.83C466.782 1721.83 465.63 1722.16 464.634 1722.82C463.65 1723.47 462.876 1724.34 462.312 1725.43C461.76 1726.52 461.484 1727.75 461.484 1729.1ZM455.886 1729.1C455.886 1727.37 456.192 1725.77 456.804 1724.28C457.416 1722.78 458.274 1721.47 459.378 1720.35C460.482 1719.24 461.778 1718.37 463.266 1717.74C464.754 1717.12 466.362 1716.81 468.09 1716.81C469.842 1716.81 471.456 1717.12 472.932 1717.74C474.42 1718.37 475.71 1719.24 476.802 1720.35C477.906 1721.47 478.758 1722.78 479.358 1724.28C479.97 1725.77 480.276 1727.37 480.276 1729.1C480.276 1730.84 479.982 1732.46 479.394 1733.96C478.806 1735.45 477.966 1736.76 476.874 1737.89C475.782 1739 474.492 1739.87 473.004 1740.5C471.516 1741.12 469.878 1741.43 468.09 1741.43C466.266 1741.43 464.604 1741.12 463.104 1740.5C461.616 1739.87 460.332 1739 459.252 1737.89C458.172 1736.76 457.338 1735.45 456.75 1733.96C456.174 1732.46 455.886 1730.84 455.886 1729.1ZM483.253 1717.24H492.937C494.317 1717.24 495.547 1717.53 496.627 1718.1C497.707 1718.68 498.559 1719.51 499.183 1720.61C499.819 1721.69 500.137 1722.98 500.137 1724.48C500.137 1725.98 499.867 1727.21 499.327 1728.17C498.799 1729.11 498.163 1729.83 497.419 1730.31C496.675 1730.78 495.985 1731.06 495.349 1731.15L501.127 1741H495.079L489.931 1731.57H488.635V1741H483.253V1717.24ZM488.635 1727.84H491.011C491.971 1727.84 492.811 1727.61 493.531 1727.14C494.251 1726.67 494.611 1725.84 494.611 1724.66C494.611 1723.47 494.257 1722.65 493.549 1722.19C492.841 1721.72 492.007 1721.49 491.047 1721.49H488.635V1727.84ZM508.32 1721.96H502.65V1717.24H519.354V1721.96H513.702V1741H508.32V1721.96ZM530.902 1716.81C532.378 1716.81 533.668 1716.97 534.772 1717.29C535.876 1717.62 536.764 1717.96 537.436 1718.32C538.108 1718.68 538.516 1718.92 538.66 1719.04L536.068 1723.38C535.876 1723.23 535.546 1723.02 535.078 1722.75C534.622 1722.47 534.076 1722.23 533.44 1722.01C532.816 1721.79 532.162 1721.69 531.478 1721.69C530.554 1721.69 529.804 1721.85 529.228 1722.19C528.664 1722.51 528.382 1723 528.382 1723.65C528.382 1724.09 528.532 1724.49 528.832 1724.85C529.144 1725.2 529.612 1725.54 530.236 1725.86C530.872 1726.17 531.676 1726.52 532.648 1726.89C533.536 1727.21 534.37 1727.6 535.15 1728.04C535.93 1728.48 536.614 1729.01 537.202 1729.62C537.802 1730.22 538.276 1730.92 538.624 1731.71C538.972 1732.5 539.146 1733.4 539.146 1734.41C539.146 1735.61 538.9 1736.66 538.408 1737.54C537.916 1738.42 537.244 1739.15 536.392 1739.72C535.552 1740.3 534.592 1740.72 533.512 1741C532.444 1741.29 531.334 1741.43 530.182 1741.43C528.55 1741.43 527.086 1741.25 525.79 1740.87C524.506 1740.5 523.468 1740.1 522.676 1739.67C521.884 1739.24 521.41 1738.95 521.254 1738.8L523.936 1734.29C524.08 1734.39 524.356 1734.57 524.764 1734.81C525.184 1735.05 525.694 1735.3 526.294 1735.56C526.894 1735.82 527.53 1736.03 528.202 1736.21C528.886 1736.39 529.558 1736.48 530.218 1736.48C531.322 1736.48 532.15 1736.27 532.702 1735.85C533.254 1735.42 533.53 1734.86 533.53 1734.16C533.53 1733.64 533.356 1733.18 533.008 1732.77C532.66 1732.37 532.138 1731.98 531.442 1731.62C530.746 1731.25 529.876 1730.86 528.832 1730.45C527.788 1730.03 526.81 1729.52 525.898 1728.92C524.998 1728.32 524.266 1727.57 523.702 1726.67C523.138 1725.77 522.856 1724.66 522.856 1723.32C522.856 1721.99 523.228 1720.84 523.972 1719.87C524.728 1718.88 525.718 1718.13 526.942 1717.6C528.178 1717.07 529.498 1716.81 530.902 1716.81Z" fill="white"/>
</g>
<g id="svg-literary">
<rect width="352" height="255" transform="translate(194 2681)" fill="#32174D"/>
<path d="M202.5 2688.5L244 2804M244 2804L369.5 2925.5M244 2804L286.5 2741.5" stroke="white" stroke-width="5"/>
<circle cx="244.5" cy="2805.5" r="10.5" fill="white" stroke="#32174D" stroke-width="6"/>
<circle cx="367.5" cy="2928.5" r="10.5" fill="white" stroke="#32174D" stroke-width="6"/>
<circle cx="285.5" cy="2744.5" r="10.5" fill="white" stroke="#32174D" stroke-width="6"/>
<circle cx="201.5" cy="2688.5" r="10.5" fill="white" stroke="#32174D" stroke-width="6"/>
<path d="M398.677 2808.24H404.059V2827.28H412.681V2832H398.677V2808.24ZM416.38 2808.24H421.762V2832H416.38V2808.24ZM430.067 2812.96H424.397V2808.24H441.101V2812.96H435.449V2832H430.067V2812.96ZM443.99 2808.24H459.164V2812.96H449.354V2817.8H459.074V2822.37H449.354V2827.28H459.164V2832H443.99V2808.24ZM463.113 2808.24H472.797C474.177 2808.24 475.407 2808.53 476.487 2809.1C477.567 2809.68 478.419 2810.51 479.043 2811.61C479.679 2812.69 479.997 2813.98 479.997 2815.48C479.997 2816.98 479.727 2818.21 479.187 2819.17C478.659 2820.11 478.023 2820.83 477.279 2821.31C476.535 2821.78 475.845 2822.06 475.209 2822.15L480.987 2832H474.939L469.791 2822.57H468.495V2832H463.113V2808.24ZM468.495 2818.84H470.871C471.831 2818.84 472.671 2818.61 473.391 2818.14C474.111 2817.67 474.471 2816.84 474.471 2815.66C474.471 2814.47 474.117 2813.65 473.409 2813.19C472.701 2812.72 471.867 2812.49 470.907 2812.49H468.495V2818.84ZM490.507 2808.24H495.853L505.231 2832H499.489L497.761 2827.23H488.617L486.871 2832H481.111L490.507 2808.24ZM490.417 2822.51H495.979L493.225 2814.72H493.171L490.417 2822.51ZM507.023 2808.24H516.707C518.087 2808.24 519.317 2808.53 520.397 2809.1C521.477 2809.68 522.329 2810.51 522.953 2811.61C523.589 2812.69 523.907 2813.98 523.907 2815.48C523.907 2816.98 523.637 2818.21 523.097 2819.17C522.569 2820.11 521.933 2820.83 521.189 2821.31C520.445 2821.78 519.755 2822.06 519.119 2822.15L524.897 2832H518.849L513.701 2822.57H512.405V2832H507.023V2808.24ZM512.405 2818.84H514.781C515.741 2818.84 516.581 2818.61 517.301 2818.14C518.021 2817.67 518.381 2816.84 518.381 2815.66C518.381 2814.47 518.027 2813.65 517.319 2813.19C516.611 2812.72 515.777 2812.49 514.817 2812.49H512.405V2818.84ZM531.9 2823.45L523.71 2808.24H530.244L534.582 2817.29L538.938 2808.24H545.436L537.282 2823.45V2832H531.9V2823.45Z" fill="white"/>
</g>
<g id="svg-humanities">
<rect width="417" height="272" transform="translate(162 1057)" fill="#32174D"/>
<path d="M391.175 1311.44H382.967V1321H377.603V1297.24H382.967V1306.74H391.175V1297.24H396.521V1321H391.175V1311.44ZM414.33 1297.24H419.712V1311.84C419.712 1313.79 419.328 1315.49 418.56 1316.93C417.792 1318.36 416.694 1319.47 415.266 1320.26C413.838 1321.04 412.134 1321.43 410.154 1321.43C408.162 1321.43 406.446 1321.04 405.006 1320.26C403.566 1319.47 402.462 1318.36 401.694 1316.93C400.938 1315.49 400.56 1313.79 400.56 1311.84V1297.24H405.924V1311.55C405.924 1312.63 406.092 1313.54 406.428 1314.29C406.776 1315.03 407.268 1315.59 407.904 1315.98C408.54 1316.35 409.29 1316.54 410.154 1316.54C411.006 1316.54 411.744 1316.35 412.368 1315.98C412.992 1315.59 413.472 1315.03 413.808 1314.29C414.156 1313.54 414.33 1312.63 414.33 1311.55V1297.24ZM448.825 1297.24V1321H443.461V1307.01L443.695 1303.04L442.777 1307.59L438.781 1319.09H433.507L429.529 1307.59L428.629 1303.04L428.863 1307.01V1321H423.481V1297.24H431.041L435.829 1313.1L436.153 1314.99L436.477 1313.1L441.265 1297.24H448.825ZM460.823 1297.24H466.169L475.547 1321H469.805L468.077 1316.23H458.933L457.187 1321H451.427L460.823 1297.24ZM460.733 1311.51H466.295L463.541 1303.72H463.487L460.733 1311.51ZM482.433 1302.17L482.829 1302.24V1321H477.447V1297.24H484.791L494.421 1315.96L494.025 1316.03V1297.24H499.407V1321H492.027L482.433 1302.17ZM503.661 1297.24H509.043V1321H503.661V1297.24ZM517.348 1301.96H511.678V1297.24H528.382V1301.96H522.73V1321H517.348V1301.96ZM531.469 1297.24H536.851V1321H531.469V1297.24ZM541.01 1297.24H556.184V1301.96H546.374V1306.8H556.094V1311.37H546.374V1316.28H556.184V1321H541.01V1297.24ZM568.898 1296.81C570.374 1296.81 571.664 1296.97 572.768 1297.29C573.872 1297.62 574.76 1297.96 575.432 1298.32C576.104 1298.68 576.512 1298.92 576.656 1299.04L574.064 1303.38C573.872 1303.23 573.542 1303.02 573.074 1302.75C572.618 1302.47 572.072 1302.23 571.436 1302.01C570.812 1301.79 570.158 1301.69 569.474 1301.69C568.55 1301.69 567.8 1301.85 567.224 1302.19C566.66 1302.51 566.378 1303 566.378 1303.65C566.378 1304.09 566.528 1304.49 566.828 1304.85C567.14 1305.2 567.608 1305.54 568.232 1305.86C568.868 1306.17 569.672 1306.52 570.644 1306.89C571.532 1307.21 572.366 1307.6 573.146 1308.04C573.926 1308.48 574.61 1309.01 575.198 1309.62C575.798 1310.22 576.272 1310.92 576.62 1311.71C576.968 1312.5 577.142 1313.4 577.142 1314.41C577.142 1315.61 576.896 1316.66 576.404 1317.54C575.912 1318.42 575.24 1319.15 574.388 1319.72C573.548 1320.3 572.588 1320.72 571.508 1321C570.44 1321.29 569.33 1321.43 568.178 1321.43C566.546 1321.43 565.082 1321.25 563.786 1320.87C562.502 1320.5 561.464 1320.1 560.672 1319.67C559.88 1319.24 559.406 1318.95 559.25 1318.8L561.932 1314.29C562.076 1314.39 562.352 1314.57 562.76 1314.81C563.18 1315.05 563.69 1315.3 564.29 1315.56C564.89 1315.82 565.526 1316.03 566.198 1316.21C566.882 1316.39 567.554 1316.48 568.214 1316.48C569.318 1316.48 570.146 1316.27 570.698 1315.85C571.25 1315.42 571.526 1314.86 571.526 1314.16C571.526 1313.64 571.352 1313.18 571.004 1312.77C570.656 1312.37 570.134 1311.98 569.438 1311.62C568.742 1311.25 567.872 1310.86 566.828 1310.45C565.784 1310.03 564.806 1309.52 563.894 1308.92C562.994 1308.32 562.262 1307.57 561.698 1306.67C561.134 1305.77 560.852 1304.66 560.852 1303.32C560.852 1301.99 561.224 1300.84 561.968 1299.87C562.724 1298.88 563.714 1298.13 564.938 1297.6C566.174 1297.07 567.494 1296.81 568.898 1296.81Z" fill="white"/>
<path d="M169.5 1065.5L369.5 1213.5L214 1317.5" stroke="white" stroke-width="5"/>
<circle cx="169.5" cy="1064.5" r="10.5" fill="white" stroke="#32174D" stroke-width="6"/>
<circle cx="368.5" cy="1212.5" r="10.5" fill="white" stroke="#32174D" stroke-width="6"/>
<circle cx="212.5" cy="1316.5" r="10.5" fill="white" stroke="#32174D" stroke-width="6"/>
</g>
<g id="svg-environment">
<rect width="399" height="135" transform="translate(171 2375)" fill="#32174D"/>
<path d="M176 2380L322 2503" stroke="white" stroke-width="5"/>
<path d="M325.869 2391.24H341.043V2395.96H331.233V2400.8H340.953V2405.37H331.233V2410.28H341.043V2415H325.869V2391.24ZM350.085 2396.17L350.481 2396.24V2415H345.099V2391.24H352.443L362.073 2409.96L361.677 2410.03V2391.24H367.059V2415H359.679L350.085 2396.17ZM384.291 2415H378.207L369.747 2391.24H375.813L381.249 2408.14L386.685 2391.24H392.751L384.291 2415ZM395.606 2391.24H400.988V2415H395.606V2391.24ZM405.038 2391.24H414.722C416.102 2391.24 417.332 2391.53 418.412 2392.1C419.492 2392.68 420.344 2393.51 420.968 2394.61C421.604 2395.69 421.922 2396.98 421.922 2398.48C421.922 2399.98 421.652 2401.21 421.112 2402.17C420.584 2403.11 419.948 2403.83 419.204 2404.31C418.46 2404.78 417.77 2405.06 417.134 2405.15L422.912 2415H416.864L411.716 2405.57H410.42V2415H405.038V2391.24ZM410.42 2401.84H412.796C413.756 2401.84 414.596 2401.61 415.316 2401.14C416.036 2400.67 416.396 2399.84 416.396 2398.66C416.396 2397.47 416.042 2396.65 415.334 2396.19C414.626 2395.72 413.792 2395.49 412.832 2395.49H410.42V2401.84ZM430.027 2403.1C430.027 2404.46 430.303 2405.69 430.855 2406.79C431.419 2407.88 432.193 2408.75 433.177 2409.4C434.173 2410.05 435.325 2410.37 436.633 2410.37C437.941 2410.37 439.087 2410.05 440.071 2409.4C441.067 2408.75 441.841 2407.88 442.393 2406.79C442.957 2405.69 443.239 2404.46 443.239 2403.1C443.239 2401.75 442.957 2400.52 442.393 2399.43C441.841 2398.34 441.067 2397.47 440.071 2396.82C439.087 2396.16 437.941 2395.83 436.633 2395.83C435.325 2395.83 434.173 2396.16 433.177 2396.82C432.193 2397.47 431.419 2398.34 430.855 2399.43C430.303 2400.52 430.027 2401.75 430.027 2403.1ZM424.429 2403.1C424.429 2401.37 424.735 2399.77 425.347 2398.28C425.959 2396.78 426.817 2395.47 427.921 2394.35C429.025 2393.24 430.321 2392.37 431.809 2391.74C433.297 2391.12 434.905 2390.81 436.633 2390.81C438.385 2390.81 439.999 2391.12 441.475 2391.74C442.963 2392.37 444.253 2393.24 445.345 2394.35C446.449 2395.47 447.301 2396.78 447.901 2398.28C448.513 2399.77 448.819 2401.37 448.819 2403.1C448.819 2404.84 448.525 2406.46 447.937 2407.96C447.349 2409.45 446.509 2410.76 445.417 2411.89C444.325 2413 443.035 2413.87 441.547 2414.5C440.059 2415.12 438.421 2415.43 436.633 2415.43C434.809 2415.43 433.147 2415.12 431.647 2414.5C430.159 2413.87 428.875 2413 427.795 2411.89C426.715 2410.76 425.881 2409.45 425.293 2407.96C424.717 2406.46 424.429 2404.84 424.429 2403.1ZM456.89 2396.17L457.286 2396.24V2415H451.904V2391.24H459.248L468.878 2409.96L468.482 2410.03V2391.24H473.864V2415H466.484L456.89 2396.17ZM503.228 2391.24V2415H497.864V2401.01L498.098 2397.04L497.18 2401.59L493.184 2413.09H487.91L483.932 2401.59L483.032 2397.04L483.266 2401.01V2415H477.884V2391.24H485.444L490.232 2407.1L490.556 2408.99L490.88 2407.1L495.668 2391.24H503.228ZM507.521 2391.24H522.695V2395.96H512.885V2400.8H522.605V2405.37H512.885V2410.28H522.695V2415H507.521V2391.24ZM531.738 2396.17L532.134 2396.24V2415H526.752V2391.24H534.096L543.726 2409.96L543.33 2410.03V2391.24H548.712V2415H541.332L531.738 2396.17ZM557.195 2395.96H551.525V2391.24H568.229V2395.96H562.577V2415H557.195V2395.96Z" fill="white"/>
<circle cx="178.5" cy="2382.5" r="10.5" fill="white" stroke="#32174D" stroke-width="6"/>
<circle cx="323.5" cy="2502.5" r="10.5" fill="white" stroke="#32174D" stroke-width="6"/>
</g>
<g id="svg-commerce">
<rect width="444" height="279" transform="translate(148 627)" fill="#32174D"/>
<path d="M415.162 893.104C416.266 893.104 417.268 892.942 418.168 892.618C419.08 892.294 419.758 891.976 420.202 891.664L422.506 896.236C421.942 896.716 420.976 897.202 419.608 897.694C418.252 898.186 416.638 898.432 414.766 898.432C413.014 898.432 411.37 898.126 409.834 897.514C408.298 896.902 406.942 896.044 405.766 894.94C404.602 893.824 403.684 892.522 403.012 891.034C402.352 889.534 402.022 887.908 402.022 886.156C402.022 884.404 402.352 882.778 403.012 881.278C403.672 879.766 404.584 878.452 405.748 877.336C406.924 876.22 408.28 875.356 409.816 874.744C411.364 874.12 413.014 873.808 414.766 873.808C416.638 873.808 418.252 874.054 419.608 874.546C420.976 875.038 421.942 875.524 422.506 876.004L420.202 880.576C419.758 880.252 419.08 879.934 418.168 879.622C417.268 879.298 416.266 879.136 415.162 879.136C413.938 879.136 412.87 879.328 411.958 879.712C411.046 880.084 410.284 880.6 409.672 881.26C409.06 881.92 408.604 882.664 408.304 883.492C408.004 884.32 407.854 885.19 407.854 886.102C407.854 887.026 408.004 887.908 408.304 888.748C408.604 889.576 409.06 890.32 409.672 890.98C410.284 891.64 411.046 892.162 411.958 892.546C412.87 892.918 413.938 893.104 415.162 893.104ZM430.625 886.102C430.625 887.458 430.901 888.688 431.453 889.792C432.017 890.884 432.791 891.754 433.775 892.402C434.771 893.05 435.923 893.374 437.231 893.374C438.539 893.374 439.685 893.05 440.669 892.402C441.665 891.754 442.439 890.884 442.991 889.792C443.555 888.688 443.837 887.458 443.837 886.102C443.837 884.746 443.555 883.522 442.991 882.43C442.439 881.338 441.665 880.468 440.669 879.82C439.685 879.16 438.539 878.83 437.231 878.83C435.923 878.83 434.771 879.16 433.775 879.82C432.791 880.468 432.017 881.338 431.453 882.43C430.901 883.522 430.625 884.746 430.625 886.102ZM425.027 886.102C425.027 884.374 425.333 882.766 425.945 881.278C426.557 879.778 427.415 878.47 428.519 877.354C429.623 876.238 430.919 875.368 432.407 874.744C433.895 874.12 435.503 873.808 437.231 873.808C438.983 873.808 440.597 874.12 442.073 874.744C443.561 875.368 444.851 876.238 445.943 877.354C447.047 878.47 447.899 879.778 448.499 881.278C449.111 882.766 449.417 884.374 449.417 886.102C449.417 887.842 449.123 889.462 448.535 890.962C447.947 892.45 447.107 893.758 446.015 894.886C444.923 896.002 443.633 896.872 442.145 897.496C440.657 898.12 439.019 898.432 437.231 898.432C435.407 898.432 433.745 898.12 432.245 897.496C430.757 896.872 429.473 896.002 428.393 894.886C427.313 893.758 426.479 892.45 425.891 890.962C425.315 889.462 425.027 887.842 425.027 886.102ZM477.81 874.24V898H472.446V884.014L472.68 880.036L471.762 884.59L467.766 896.092H462.492L458.514 884.59L457.614 880.036L457.848 884.014V898H452.466V874.24H460.026L464.814 890.098L465.138 891.988L465.462 890.098L470.25 874.24H477.81ZM507.411 874.24V898H502.047V884.014L502.281 880.036L501.363 884.59L497.367 896.092H492.093L488.115 884.59L487.215 880.036L487.449 884.014V898H482.067V874.24H489.627L494.415 890.098L494.739 891.988L495.063 890.098L499.851 874.24H507.411ZM511.705 874.24H526.879V878.956H517.069V883.798H526.789V888.37H517.069V893.284H526.879V898H511.705V874.24ZM530.827 874.24H540.511C541.891 874.24 543.121 874.528 544.201 875.104C545.281 875.68 546.133 876.514 546.757 877.606C547.393 878.686 547.711 879.976 547.711 881.476C547.711 882.976 547.441 884.206 546.901 885.166C546.373 886.114 545.737 886.828 544.993 887.308C544.249 887.776 543.559 888.058 542.923 888.154L548.701 898H542.653L537.505 888.568H536.209V898H530.827V874.24ZM536.209 884.842H538.585C539.545 884.842 540.385 884.608 541.105 884.14C541.825 883.672 542.185 882.844 542.185 881.656C542.185 880.468 541.831 879.646 541.123 879.19C540.415 878.722 539.581 878.488 538.621 878.488H536.209V884.842ZM563.556 893.104C564.66 893.104 565.662 892.942 566.562 892.618C567.474 892.294 568.152 891.976 568.596 891.664L570.9 896.236C570.336 896.716 569.37 897.202 568.002 897.694C566.646 898.186 565.032 898.432 563.16 898.432C561.408 898.432 559.764 898.126 558.228 897.514C556.692 896.902 555.336 896.044 554.16 894.94C552.996 893.824 552.078 892.522 551.406 891.034C550.746 889.534 550.416 887.908 550.416 886.156C550.416 884.404 550.746 882.778 551.406 881.278C552.066 879.766 552.978 878.452 554.142 877.336C555.318 876.22 556.674 875.356 558.21 874.744C559.758 874.12 561.408 873.808 563.16 873.808C565.032 873.808 566.646 874.054 568.002 874.546C569.37 875.038 570.336 875.524 570.9 876.004L568.596 880.576C568.152 880.252 567.474 879.934 566.562 879.622C565.662 879.298 564.66 879.136 563.556 879.136C562.332 879.136 561.264 879.328 560.352 879.712C559.44 880.084 558.678 880.6 558.066 881.26C557.454 881.92 556.998 882.664 556.698 883.492C556.398 884.32 556.248 885.19 556.248 886.102C556.248 887.026 556.398 887.908 556.698 888.748C556.998 889.576 557.454 890.32 558.066 890.98C558.678 891.64 559.44 892.162 560.352 892.546C561.264 892.918 562.332 893.104 563.556 893.104ZM574.178 874.24H589.352V878.956H579.542V883.798H589.262V888.37H579.542V893.284H589.352V898H574.178V874.24Z" fill="white"/>
<path d="M398 635L154.5 683.5L191.5 859.5L475.5 788" stroke="white" stroke-width="5"/>
<circle cx="155.5" cy="682.5" r="10.5" fill="white" stroke="#32174D" stroke-width="6"/>
<circle cx="400.5" cy="634.5" r="10.5" fill="white" stroke="#32174D" stroke-width="6"/>
<circle cx="475.5" cy="788.5" r="10.5" fill="white" stroke="#32174D" stroke-width="6"/>
<circle cx="192.5" cy="856.5" r="10.5" fill="white" stroke="#32174D" stroke-width="6"/>
</g>
<g id="svg-science">
<rect width="363" height="327" transform="translate(189 129)" fill="#32174D"/>
<path d="M384.269 408.808C385.745 408.808 387.035 408.97 388.139 409.294C389.243 409.618 390.131 409.96 390.803 410.32C391.475 410.68 391.883 410.92 392.027 411.04L389.435 415.378C389.243 415.234 388.913 415.024 388.445 414.748C387.989 414.472 387.443 414.226 386.807 414.01C386.183 413.794 385.529 413.686 384.845 413.686C383.921 413.686 383.171 413.854 382.595 414.19C382.031 414.514 381.749 415 381.749 415.648C381.749 416.092 381.899 416.494 382.199 416.854C382.511 417.202 382.979 417.538 383.603 417.862C384.239 418.174 385.043 418.516 386.015 418.888C386.903 419.212 387.737 419.596 388.517 420.04C389.297 420.484 389.981 421.012 390.569 421.624C391.169 422.224 391.643 422.92 391.991 423.712C392.339 424.504 392.513 425.404 392.513 426.412C392.513 427.612 392.267 428.656 391.775 429.544C391.283 430.42 390.611 431.146 389.759 431.722C388.919 432.298 387.959 432.724 386.879 433C385.811 433.288 384.701 433.432 383.549 433.432C381.917 433.432 380.453 433.246 379.157 432.874C377.873 432.502 376.835 432.1 376.043 431.668C375.251 431.236 374.777 430.948 374.621 430.804L377.303 426.286C377.447 426.394 377.723 426.568 378.131 426.808C378.551 427.048 379.061 427.3 379.661 427.564C380.261 427.816 380.897 428.032 381.569 428.212C382.253 428.392 382.925 428.482 383.585 428.482C384.689 428.482 385.517 428.272 386.069 427.852C386.621 427.42 386.897 426.856 386.897 426.16C386.897 425.644 386.723 425.182 386.375 424.774C386.027 424.366 385.505 423.982 384.809 423.622C384.113 423.25 383.243 422.86 382.199 422.452C381.155 422.032 380.177 421.522 379.265 420.922C378.365 420.322 377.633 419.572 377.069 418.672C376.505 417.772 376.223 416.656 376.223 415.324C376.223 413.992 376.595 412.84 377.339 411.868C378.095 410.884 379.085 410.128 380.309 409.6C381.545 409.072 382.865 408.808 384.269 408.808ZM408.338 428.104C409.442 428.104 410.444 427.942 411.344 427.618C412.256 427.294 412.934 426.976 413.378 426.664L415.682 431.236C415.118 431.716 414.152 432.202 412.784 432.694C411.428 433.186 409.814 433.432 407.942 433.432C406.19 433.432 404.546 433.126 403.01 432.514C401.474 431.902 400.118 431.044 398.942 429.94C397.778 428.824 396.86 427.522 396.188 426.034C395.528 424.534 395.198 422.908 395.198 421.156C395.198 419.404 395.528 417.778 396.188 416.278C396.848 414.766 397.76 413.452 398.924 412.336C400.1 411.22 401.456 410.356 402.992 409.744C404.54 409.12 406.19 408.808 407.942 408.808C409.814 408.808 411.428 409.054 412.784 409.546C414.152 410.038 415.118 410.524 415.682 411.004L413.378 415.576C412.934 415.252 412.256 414.934 411.344 414.622C410.444 414.298 409.442 414.136 408.338 414.136C407.114 414.136 406.046 414.328 405.134 414.712C404.222 415.084 403.46 415.6 402.848 416.26C402.236 416.92 401.78 417.664 401.48 418.492C401.18 419.32 401.03 420.19 401.03 421.102C401.03 422.026 401.18 422.908 401.48 423.748C401.78 424.576 402.236 425.32 402.848 425.98C403.46 426.64 404.222 427.162 405.134 427.546C406.046 427.918 407.114 428.104 408.338 428.104ZM419.157 409.24H424.539V433H419.157V409.24ZM428.697 409.24H443.871V413.956H434.061V418.798H443.781V423.37H434.061V428.284H443.871V433H428.697V409.24ZM452.914 414.172L453.31 414.244V433H447.928V409.24H455.272L464.902 427.96L464.506 428.032V409.24H469.888V433H462.508L452.914 414.172ZM486.525 428.104C487.629 428.104 488.631 427.942 489.531 427.618C490.443 427.294 491.121 426.976 491.565 426.664L493.869 431.236C493.305 431.716 492.339 432.202 490.971 432.694C489.615 433.186 488.001 433.432 486.129 433.432C484.377 433.432 482.733 433.126 481.197 432.514C479.661 431.902 478.305 431.044 477.129 429.94C475.965 428.824 475.047 427.522 474.375 426.034C473.715 424.534 473.385 422.908 473.385 421.156C473.385 419.404 473.715 417.778 474.375 416.278C475.035 414.766 475.947 413.452 477.111 412.336C478.287 411.22 479.643 410.356 481.179 409.744C482.727 409.12 484.377 408.808 486.129 408.808C488.001 408.808 489.615 409.054 490.971 409.546C492.339 410.038 493.305 410.524 493.869 411.004L491.565 415.576C491.121 415.252 490.443 414.934 489.531 414.622C488.631 414.298 487.629 414.136 486.525 414.136C485.301 414.136 484.233 414.328 483.321 414.712C482.409 415.084 481.647 415.6 481.035 416.26C480.423 416.92 479.967 417.664 479.667 418.492C479.367 419.32 479.217 420.19 479.217 421.102C479.217 422.026 479.367 422.908 479.667 423.748C479.967 424.576 480.423 425.32 481.035 425.98C481.647 426.64 482.409 427.162 483.321 427.546C484.233 427.918 485.301 428.104 486.525 428.104ZM497.146 409.24H512.32V413.956H502.51V418.798H512.23V423.37H502.51V428.284H512.32V433H497.146V409.24Z" fill="white"/>
<path d="M545.5 293L342 316M342 316L196.5 449M342 316L253.5 138" stroke="white" stroke-width="5"/>
<circle cx="196.5" cy="448.5" r="10.5" fill="white" stroke="#32174D" stroke-width="6"/>
<circle cx="253.5" cy="136.5" r="10.5" fill="white" stroke="#32174D" stroke-width="6"/>
<circle cx="544.5" cy="291.5" r="10.5" fill="white" stroke="#32174D" stroke-width="6"/>
<circle cx="342.5" cy="314.5" r="10.5" fill="white" stroke="#32174D" stroke-width="6"/>
</g>
<g id="svg-cultural">
<rect width="381" height="277" transform="translate(180 1927)" fill="#32174D"/>
<path d="M411.092 2191.1C412.196 2191.1 413.198 2190.94 414.098 2190.62C415.01 2190.29 415.688 2189.98 416.132 2189.66L418.436 2194.24C417.872 2194.72 416.906 2195.2 415.538 2195.69C414.182 2196.19 412.568 2196.43 410.696 2196.43C408.944 2196.43 407.3 2196.13 405.764 2195.51C404.228 2194.9 402.872 2194.04 401.696 2192.94C400.532 2191.82 399.614 2190.52 398.942 2189.03C398.282 2187.53 397.952 2185.91 397.952 2184.16C397.952 2182.4 398.282 2180.78 398.942 2179.28C399.602 2177.77 400.514 2176.45 401.678 2175.34C402.854 2174.22 404.21 2173.36 405.746 2172.74C407.294 2172.12 408.944 2171.81 410.696 2171.81C412.568 2171.81 414.182 2172.05 415.538 2172.55C416.906 2173.04 417.872 2173.52 418.436 2174L416.132 2178.58C415.688 2178.25 415.01 2177.93 414.098 2177.62C413.198 2177.3 412.196 2177.14 411.092 2177.14C409.868 2177.14 408.8 2177.33 407.888 2177.71C406.976 2178.08 406.214 2178.6 405.602 2179.26C404.99 2179.92 404.534 2180.66 404.234 2181.49C403.934 2182.32 403.784 2183.19 403.784 2184.1C403.784 2185.03 403.934 2185.91 404.234 2186.75C404.534 2187.58 404.99 2188.32 405.602 2188.98C406.214 2189.64 406.976 2190.16 407.888 2190.55C408.8 2190.92 409.868 2191.1 411.092 2191.1ZM435.447 2172.24H440.829V2186.84C440.829 2188.79 440.445 2190.49 439.677 2191.93C438.909 2193.36 437.811 2194.47 436.383 2195.26C434.955 2196.04 433.251 2196.43 431.271 2196.43C429.279 2196.43 427.563 2196.04 426.123 2195.26C424.683 2194.47 423.579 2193.36 422.811 2191.93C422.055 2190.49 421.677 2188.79 421.677 2186.84V2172.24H427.041V2186.55C427.041 2187.63 427.209 2188.54 427.545 2189.29C427.893 2190.03 428.385 2190.59 429.021 2190.98C429.657 2191.35 430.407 2191.54 431.271 2191.54C432.123 2191.54 432.861 2191.35 433.485 2190.98C434.109 2190.59 434.589 2190.03 434.925 2189.29C435.273 2188.54 435.447 2187.63 435.447 2186.55V2172.24ZM444.779 2172.24H450.161V2191.28H458.783V2196H444.779V2172.24ZM464.074 2176.96H458.404V2172.24H475.108V2176.96H469.456V2196H464.074V2176.96ZM491.732 2172.24H497.114V2186.84C497.114 2188.79 496.73 2190.49 495.962 2191.93C495.194 2193.36 494.096 2194.47 492.668 2195.26C491.24 2196.04 489.536 2196.43 487.556 2196.43C485.564 2196.43 483.848 2196.04 482.408 2195.26C480.968 2194.47 479.864 2193.36 479.096 2191.93C478.34 2190.49 477.962 2188.79 477.962 2186.84V2172.24H483.326V2186.55C483.326 2187.63 483.494 2188.54 483.83 2189.29C484.178 2190.03 484.67 2190.59 485.306 2190.98C485.942 2191.35 486.692 2191.54 487.556 2191.54C488.408 2191.54 489.146 2191.35 489.77 2190.98C490.394 2190.59 490.874 2190.03 491.21 2189.29C491.558 2188.54 491.732 2187.63 491.732 2186.55V2172.24ZM500.812 2172.24H510.496C511.876 2172.24 513.106 2172.53 514.186 2173.1C515.266 2173.68 516.118 2174.51 516.742 2175.61C517.378 2176.69 517.696 2177.98 517.696 2179.48C517.696 2180.98 517.426 2182.21 516.886 2183.17C516.358 2184.11 515.722 2184.83 514.978 2185.31C514.234 2185.78 513.544 2186.06 512.908 2186.15L518.686 2196H512.638L507.49 2186.57H506.194V2196H500.812V2172.24ZM506.194 2182.84H508.57C509.53 2182.84 510.37 2182.61 511.09 2182.14C511.81 2181.67 512.17 2180.84 512.17 2179.66C512.17 2178.47 511.816 2177.65 511.108 2177.19C510.4 2176.72 509.566 2176.49 508.606 2176.49H506.194V2182.84ZM528.206 2172.24H533.552L542.93 2196H537.188L535.46 2191.23H526.316L524.57 2196H518.81L528.206 2172.24ZM528.116 2186.51H533.678L530.924 2178.72H530.87L528.116 2186.51ZM544.974 2172.24H550.356V2191.28H558.978V2196H544.974V2172.24Z" fill="white"/>
<path d="M188 2171L367.5 2087.5M367.5 2087.5L392 1934L217.5 1973L367.5 2087.5Z" stroke="white" stroke-width="5"/>
<circle cx="217.5" cy="1972.5" r="10.5" fill="white" stroke="#32174D" stroke-width="6"/>
<circle cx="389.5" cy="1934.5" r="10.5" fill="white" stroke="#32174D" stroke-width="6"/>
<circle cx="187.5" cy="2170.5" r="10.5" fill="white" stroke="#32174D" stroke-width="6"/>
<circle cx="366.5" cy="2087.5" r="10.5" fill="white" stroke="#32174D" stroke-width="6"/>
</g>
</svg>
